<?xml version="1.0" encoding="UTF-8"?><svg id="Layer_1" xmlns="http://www.w3.org/2000/svg" viewBox="0 0 206 288.4"><defs><style>.cls-1{fill:#fff;}.cls-2{fill:#ff3036;}.cls-3{fill:#ff4a6e;}.cls-4{fill:#ff3445;}.cls-5{fill:#fb3344;}.cls-6{fill:#ff1e57;}.cls-7{fill:#f10022;}.cls-8{fill:#ff7080;}.cls-9{fill:#ff1a2d;}.cls-10{fill:#ce0022;}.cls-11{fill:#ff0832;}.cls-12{fill:#bf0d21;}.cls-13{fill:#f60014;}.cls-14{fill:#ff1a54;}.cls-15{fill:#ff4156;}.cls-16{fill:#f4334e;}.cls-17{fill:#ff7d85;}.cls-18{fill:#ff1e2b;}.cls-19{fill:#ff274b;}.cls-20{fill:#ff1e31;}.cls-21{fill:#ff080f;}.cls-22{fill:#ff043c;}.cls-23{fill:#c1000a;}.cls-24{fill:#d30005;}.cls-25{fill:#bd0035;}.cls-26{fill:#ff2329;}.cls-27{fill:#ff3047;}.cls-28{fill:#ff1a3a;}.cls-29{fill:#ff5362;}.cls-30{fill:#ff0015;}.cls-31{fill:#e2667a;}.cls-32{fill:#ff3059;}.cls-33{fill:#ff0039;}.cls-34{fill:#ff393e;}.cls-35{fill:#ff2342;}.cls-36{fill:#ff576a;}.cls-37{fill:#ff112c;}.cls-38{fill:#ff3d48;}.cls-39{fill:#fa0015;}.cls-40{fill:#ca000b;}.cls-41{fill:#ff395a;}.cls-42{fill:#ff2739;}.cls-43{fill:#ff0d14;}.cls-44{fill:#fa0031;}.cls-45{fill:none;}.cls-46{fill:#ff4f5d;}.cls-47{fill:#ff1a20;}.cls-48{fill:#ff0420;}.cls-49{fill:#ff002b;}.cls-50{fill:#ff304d;}.cls-51{fill:#ff343a;}.cls-52{fill:#ff5358;}.cls-53{fill:#ff0839;}.cls-54{fill:#ed1c24;}.cls-55{fill:#ff1e38;}.cls-56{fill:#ff4a5f;}.cls-57{fill:#ff577d;}.cls-58{fill:#ff4157;}.cls-59{fill:#ff2361;}.cls-60{fill:#ff1a4d;}.cls-61{fill:#ff2733;}.cls-62{fill:#ff153d;}.cls-63{fill:#ff464b;}.cls-64{fill:#ff858f;}.cls-65{fill:#ff0869;}.cls-66{fill:#ff4167;}.cls-67{fill:#ff3d43;}.cls-68{fill:#ff0d3c;}</style></defs><polygon class="cls-59" points="0 25.38 32.29 14.48 0 11.36 0 25.38"/><polygon class="cls-33" points="65.68 0 32.29 14.48 37.14 0 65.68 0"/><polygon class="cls-47" points="0 25.38 26.69 57.86 32.29 14.48 0 25.38"/><polygon class="cls-9" points="65.68 0 26.69 57.86 32.29 14.48 65.68 0"/><polygon class="cls-52" points="184.2 0 150.56 18.37 172.98 46.29 184.2 0"/><polygon class="cls-42" points="65.68 0 107.23 18.37 118.44 0 65.68 0"/><polygon class="cls-60" points="50.08 23.14 107.23 18.37 65.68 0 50.08 23.14"/><polygon class="cls-25" points="26.69 57.86 0 75.43 0 25.38 26.69 57.86"/><polygon class="cls-26" points="26.69 57.86 107.23 18.37 50.08 23.14 26.69 57.86"/><polygon class="cls-27" points="107.23 18.37 150.56 18.37 118.44 0 107.23 18.37"/><polygon class="cls-55" points="184.2 0 118.44 0 150.56 18.37 184.2 0"/><polygon class="cls-66" points="172.98 46.29 206 21.37 184.2 0 172.98 46.29"/><polygon class="cls-18" points="26.69 57.86 66.96 90.11 65.68 38.74 26.69 57.86"/><polygon class="cls-38" points="66.37 66.33 107.23 18.37 65.68 38.74 66.37 66.33"/><polygon class="cls-26" points="172.98 46.29 107.23 18.37 150.56 18.37 172.98 46.29"/><polygon class="cls-58" points="206 21.37 172.98 46.29 206 82.33 206 21.37"/><polygon class="cls-20" points="66.96 90.11 79.94 50.4 66.37 66.33 66.96 90.11"/><polygon class="cls-46" points="79.94 50.4 172.98 46.29 107.23 18.37 79.94 50.4"/><polygon class="cls-48" points="66.96 90.11 126.46 48.35 79.94 50.4 66.96 90.11"/><polygon class="cls-10" points="172.98 46.29 140.11 75.43 126.46 48.35 172.98 46.29"/><polygon class="cls-32" points="206 82.33 140.11 75.43 172.98 46.29 206 82.33"/><polygon class="cls-14" points="66.96 90.11 140.11 75.43 126.46 48.35 66.96 90.11"/><polygon class="cls-31" points="66.96 90.11 0 75.43 26.69 57.86 66.96 90.11"/><polygon class="cls-10" points="0 114.8 0 75.43 66.96 90.11 0 114.8"/><polygon class="cls-11" points="140.11 75.43 118.44 104.13 66.96 90.11 140.11 75.43"/><polygon class="cls-50" points="206 82.33 118.44 104.13 140.11 75.43 206 82.33"/><polygon class="cls-29" points="0 114.8 0 166.41 33.48 102.46 0 114.8"/><polygon class="cls-15" points="66.96 90.11 13.34 140.92 33.48 102.46 66.96 90.11"/><polygon class="cls-12" points="118.44 104.13 40.9 114.8 66.96 90.11 118.44 104.13"/><polygon class="cls-3" points="0 166.41 13.34 140.92 50.08 153.67 0 166.41"/><polygon class="cls-24" points="40.9 114.8 50.08 153.67 13.34 140.92 40.9 114.8"/><polygon class="cls-37" points="118.44 104.13 50.08 153.67 40.9 114.8 118.44 104.13"/><polygon class="cls-21" points="206 82.33 206 134.24 167.38 91.94 206 82.33"/><polygon class="cls-15" points="50.08 153.67 103 176.2 89.27 125.27 50.08 153.67"/><polygon class="cls-8" points="118.44 104.13 103 176.2 89.27 125.27 118.44 104.13"/><polygon class="cls-23" points="189.49 128.56 113.13 128.9 118.44 104.13 189.49 128.56"/><polygon class="cls-1" points="206 134.24 189.49 128.56 136.28 153.67 206 134.24"/><polygon class="cls-44" points="113.13 128.9 136.28 153.67 189.49 128.56 113.13 128.9"/><polygon class="cls-24" points="118.44 104.13 167.38 91.94 206 134.24 118.44 104.13"/><polygon class="cls-28" points="0 166.41 25.04 193.11 50.08 153.67 0 166.41"/><polygon class="cls-57" points="0 218.91 25.04 193.11 0 166.41 0 218.91"/><polygon class="cls-68" points="103 176.2 136.28 153.67 113.13 128.9 103 176.2"/><polygon class="cls-49" points="206 134.24 206 185.99 136.28 153.67 206 134.24"/><polygon class="cls-58" points="25.04 193.11 103 176.2 50.08 153.67 25.04 193.11"/><polygon class="cls-58" points="206 185.99 103 176.2 136.28 153.67 206 185.99"/><polygon class="cls-2" points="25.04 193.11 40.15 239.82 0 218.91 25.04 193.11"/><polygon class="cls-40" points="103 176.2 40.15 239.82 25.04 193.11 103 176.2"/><polygon class="cls-36" points="103 176.2 96.71 223.81 40.15 239.82 103 176.2"/><polygon class="cls-30" points="96.71 223.81 140.11 179.73 103 176.2 96.71 223.81"/><polygon class="cls-43" points="206 185.99 160.24 218.91 140.11 179.73 206 185.99"/><polygon class="cls-16" points="96.71 223.81 160.24 218.91 140.11 179.73 96.71 223.81"/><polygon class="cls-7" points="206 185.99 206 229.14 160.24 218.91 206 185.99"/><polygon class="cls-17" points="40.15 239.82 0 262.51 0 218.91 40.15 239.82"/><polygon class="cls-41" points="96.71 223.81 71.57 258.51 40.15 239.82 96.71 223.81"/><polygon class="cls-61" points="40.15 239.82 0 262.51 71.57 258.51 40.15 239.82"/><polygon class="cls-56" points="96.71 223.81 109.27 258.51 71.57 258.51 96.71 223.81"/><polygon class="cls-7" points="160.24 218.91 109.27 258.51 96.71 223.81 160.24 218.91"/><polygon class="cls-6" points="206 229.14 206 262.51 160.24 218.91 206 229.14"/><polygon class="cls-67" points="128.89 243.26 206 262.51 160.24 218.91 128.89 243.26"/><polygon class="cls-51" points="0 262.51 55.23 288.07 71.57 258.51 0 262.51"/><polygon class="cls-26" points="78.65 288.07 55.23 288.07 71.57 258.51 78.65 288.07"/><polygon class="cls-11" points="126.46 288.07 136.28 273.29 154.5 288.07 126.46 288.07"/><polygon class="cls-2" points="71.57 258.51 92.06 273.29 109.27 258.51 71.57 258.51"/><polygon class="cls-13" points="78.65 288.07 92.06 273.29 71.57 258.51 78.65 288.07"/><polygon class="cls-34" points="92.06 273.29 136.28 273.29 109.27 258.51 92.06 273.29"/><polygon class="cls-27" points="126.46 288.07 92.06 273.29 78.65 288.07 126.46 288.07"/><polygon class="cls-62" points="136.28 273.29 92.06 273.29 126.46 288.07 136.28 273.29"/><polygon class="cls-35" points="136.28 273.29 175.07 254.79 128.89 243.26 136.28 273.29"/><polygon class="cls-63" points="109.27 258.51 128.89 243.26 136.28 273.29 109.27 258.51"/><polygon class="cls-53" points="175.07 254.79 206 277.62 206 262.51 175.07 254.79"/><polygon class="cls-19" points="154.5 288.07 175.07 254.79 136.28 273.29 154.5 288.07"/><polygon class="cls-63" points="175.07 254.79 197.51 287.62 154.5 288.07 175.07 254.79"/><polygon class="cls-54" points="189.49 128.56 206 134.24 136.28 153.67 189.49 128.56"/><polygon class="cls-4" points="4.95 2.01 14.96 12.81 0 11.36 1.65 5.19 4.95 2.01"/><polygon class="cls-22" points="4.95 2.01 11.98 0 32.29 14.48 4.95 2.01"/><polygon class="cls-65" points="14.96 12.81 32.29 14.48 4.95 2.01 14.96 12.81"/><polygon class="cls-4" points="11.98 0 37.14 0 32.29 14.48 11.98 0"/><polygon class="cls-4" points="5.98 285.91 15.99 275.12 1.03 278.73 2.3 283.47 5.98 285.91"/><polygon class="cls-22" points="5.98 285.91 13.01 288.4 33.32 273.44 5.98 285.91"/><polygon class="cls-65" points="15.99 275.12 33.32 273.44 5.98 285.91 15.99 275.12"/><polygon class="cls-4" points="13.01 287.92 38.16 287.92 33.32 273.44 13.01 287.92"/><polygon class="cls-4" points="200.82 2.09 190.81 12.88 205.77 11.44 204.12 5.26 200.82 2.09"/><polygon class="cls-22" points="200.82 2.09 193.79 .08 173.48 14.55 200.82 2.09"/><polygon class="cls-65" points="190.81 12.88 173.48 14.55 200.82 2.09 190.81 12.88"/><polygon class="cls-4" points="193.79 .08 168.64 .08 173.48 14.55 193.79 .08"/><polygon class="cls-4" points="201.74 285.99 194.05 277.7 205.54 278.8 204.27 283.55 201.74 285.99"/><polygon class="cls-22" points="201.74 285.99 192.76 288 172.45 273.52 201.74 285.99"/><polygon class="cls-4" points="192.76 288 167.61 288 172.45 273.52 192.76 288"/><polygon class="cls-22" points="15.99 275.12 17.94 270.82 25.29 274.22 15.99 275.12"/><polygon class="cls-64" points="0 261.58 1.03 278.73 15.99 275.12 0 261.58"/><polygon class="cls-39" points="2.42 263.63 15.99 275.12 17.94 270.82 2.42 263.63"/><polygon class="cls-39" points="35.04 278.73 38.16 287.92 55.23 288.07 35.04 278.73"/><polygon class="cls-4" points="194.05 277.7 194.05 282.71 201.74 285.99 194.05 277.7"/><polygon class="cls-39" points="175.07 254.79 194.05 277.7 194.05 282.71 175.07 254.79"/><polygon class="cls-5" points="175.07 254.79 205.54 278.8 194.05 277.7 175.07 254.79"/><polygon class="cls-5" points="205.54 278.8 206 277.62 175.07 254.79 205.54 278.8"/><polygon class="cls-39" points="196.75 12.31 206 21.37 205.77 11.44 196.75 12.31"/><rect class="cls-45" width="206" height="288.07" rx="12" ry="12"/></svg>