<?xml version="1.0" encoding="UTF-8"?><svg id="Layer_1" xmlns="http://www.w3.org/2000/svg" viewBox="0 0 208.36 332.64"><defs><style>.cls-1{fill:#fff;}.cls-2{fill:#ff3036;}.cls-3{fill:#ff4a6e;}.cls-4{fill:#ff3445;}.cls-5{fill:#fb3344;}.cls-6{fill:#ff1e57;}.cls-7{fill:#f10022;}.cls-8{fill:#ff7080;}.cls-9{fill:#ff1a2d;}.cls-10{fill:#ce0022;}.cls-11{fill:#ff0832;}.cls-12{fill:#bf0d21;}.cls-13{fill:#f60014;}.cls-14{fill:#ff1a54;}.cls-15{fill:#ff4156;}.cls-16{fill:#f4334e;}.cls-17{fill:#ff7d85;}.cls-18{fill:#ff1e2b;}.cls-19{fill:#ff274b;}.cls-20{fill:#ff1e31;}.cls-21{fill:#ff080f;}.cls-22{fill:#ff043c;}.cls-23{fill:#c1000a;}.cls-24{fill:#d30005;}.cls-25{fill:#bd0035;}.cls-26{fill:#ff2329;}.cls-27{fill:none;stroke:#231f20;stroke-miterlimit:10;stroke-width:2px;}.cls-28{fill:#ff3047;}.cls-29{fill:#ff1a3a;}.cls-30{fill:#ff5362;}.cls-31{fill:#ff0015;}.cls-32{fill:#e2667a;}.cls-33{fill:#ff3059;}.cls-34{fill:#ff0039;}.cls-35{fill:#ff393e;}.cls-36{fill:#ff2342;}.cls-37{fill:#ff576a;}.cls-38{fill:#ff112c;}.cls-39{fill:#ff3d48;}.cls-40{fill:#fa0015;}.cls-41{fill:#ca000b;}.cls-42{fill:#ff395a;}.cls-43{fill:#ff2739;}.cls-44{fill:#ff0d14;}.cls-45{fill:#fa0031;}.cls-46{fill:#ff4f5d;}.cls-47{fill:#ff1a20;}.cls-48{fill:#ff0420;}.cls-49{fill:#ff002b;}.cls-50{fill:#ff304d;}.cls-51{fill:#ff343a;}.cls-52{fill:#ff5358;}.cls-53{fill:#ff0839;}.cls-54{fill:#ed1c24;}.cls-55{fill:#ff1e38;}.cls-56{fill:#ff4a5f;}.cls-57{fill:#ff577d;}.cls-58{fill:#ff4157;}.cls-59{fill:#ff2361;}.cls-60{fill:#ff1a4d;}.cls-61{fill:#ff2733;}.cls-62{fill:#ff153d;}.cls-63{fill:#ff464b;}.cls-64{fill:#ff858f;}.cls-65{fill:#ff0869;}.cls-66{fill:#ff4167;}.cls-67{fill:#ff3d43;}.cls-68{fill:#ff0d3c;}</style></defs><polygon class="cls-59" points="1 30.13 33.35 17.62 1 14.04 1 30.13"/><polygon class="cls-34" points="66.8 1 33.35 17.62 38.2 1 66.8 1"/><polygon class="cls-47" points="1 30.13 27.73 67.4 33.35 17.62 1 30.13"/><polygon class="cls-9" points="66.8 1 27.73 67.4 33.35 17.62 66.8 1"/><polygon class="cls-52" points="185.52 1 151.82 22.08 174.29 54.13 185.52 1"/><polygon class="cls-43" points="66.8 1 108.41 22.08 119.65 1 66.8 1"/><polygon class="cls-60" points="51.17 27.56 108.41 22.08 66.8 1 51.17 27.56"/><polygon class="cls-25" points="27.73 67.4 1 87.57 1 30.13 27.73 67.4"/><polygon class="cls-26" points="27.73 67.4 108.41 22.08 51.17 27.56 27.73 67.4"/><polygon class="cls-28" points="108.41 22.08 151.82 22.08 119.65 1 108.41 22.08"/><polygon class="cls-55" points="185.52 1 119.65 1 151.82 22.08 185.52 1"/><polygon class="cls-66" points="174.29 54.13 207.36 25.53 185.52 1 174.29 54.13"/><polygon class="cls-18" points="27.73 67.4 68.07 104.42 66.8 45.46 27.73 67.4"/><polygon class="cls-39" points="67.48 77.13 108.41 22.08 66.8 45.46 67.48 77.13"/><polygon class="cls-26" points="174.29 54.13 108.41 22.08 151.82 22.08 174.29 54.13"/><polygon class="cls-58" points="207.36 25.53 174.29 54.13 207.36 95.49 207.36 25.53"/><polygon class="cls-20" points="68.07 104.42 81.07 58.85 67.48 77.13 68.07 104.42"/><polygon class="cls-46" points="81.07 58.85 174.29 54.13 108.41 22.08 81.07 58.85"/><polygon class="cls-48" points="68.07 104.42 127.68 56.49 81.07 58.85 68.07 104.42"/><polygon class="cls-10" points="174.29 54.13 141.35 87.57 127.68 56.49 174.29 54.13"/><polygon class="cls-33" points="207.36 95.49 141.35 87.57 174.29 54.13 207.36 95.49"/><polygon class="cls-14" points="68.07 104.42 141.35 87.57 127.68 56.49 68.07 104.42"/><polygon class="cls-32" points="68.07 104.42 1 87.57 27.73 67.4 68.07 104.42"/><polygon class="cls-10" points="1 132.76 1 87.57 68.07 104.42 1 132.76"/><polygon class="cls-11" points="141.35 87.57 119.65 120.51 68.07 104.42 141.35 87.57"/><polygon class="cls-50" points="207.36 95.49 119.65 120.51 141.35 87.57 207.36 95.49"/><polygon class="cls-30" points="1 132.76 1 192 34.54 118.59 1 132.76"/><polygon class="cls-15" points="68.07 104.42 14.37 162.74 34.54 118.59 68.07 104.42"/><polygon class="cls-12" points="119.65 120.51 41.97 132.76 68.07 104.42 119.65 120.51"/><polygon class="cls-3" points="1 192 14.37 162.74 51.17 177.37 1 192"/><polygon class="cls-24" points="41.97 132.76 51.17 177.37 14.37 162.74 41.97 132.76"/><polygon class="cls-38" points="119.65 120.51 51.17 177.37 41.97 132.76 119.65 120.51"/><polygon class="cls-21" points="207.36 95.49 207.36 155.07 168.67 106.53 207.36 95.49"/><polygon class="cls-15" points="51.17 177.37 104.18 203.23 90.42 144.78 51.17 177.37"/><polygon class="cls-8" points="119.65 120.51 104.18 203.23 90.42 144.78 119.65 120.51"/><polygon class="cls-23" points="190.82 148.55 114.33 148.94 119.65 120.51 190.82 148.55"/><polygon class="cls-1" points="207.36 155.07 190.82 148.55 137.52 177.37 207.36 155.07"/><polygon class="cls-45" points="114.33 148.94 137.52 177.37 190.82 148.55 114.33 148.94"/><polygon class="cls-24" points="119.65 120.51 168.67 106.53 207.36 155.07 119.65 120.51"/><polygon class="cls-29" points="1 192 26.08 222.64 51.17 177.37 1 192"/><polygon class="cls-57" points="1 252.25 26.08 222.64 1 192 1 252.25"/><polygon class="cls-68" points="104.18 203.23 137.52 177.37 114.33 148.94 104.18 203.23"/><polygon class="cls-49" points="207.36 155.07 207.36 214.47 137.52 177.37 207.36 155.07"/><polygon class="cls-58" points="26.08 222.64 104.18 203.23 51.17 177.37 26.08 222.64"/><polygon class="cls-58" points="207.36 214.47 104.18 203.23 137.52 177.37 207.36 214.47"/><polygon class="cls-2" points="26.08 222.64 41.22 276.25 1 252.25 26.08 222.64"/><polygon class="cls-41" points="104.18 203.23 41.22 276.25 26.08 222.64 104.18 203.23"/><polygon class="cls-37" points="104.18 203.23 97.88 257.87 41.22 276.25 104.18 203.23"/><polygon class="cls-31" points="97.88 257.87 141.35 207.28 104.18 203.23 97.88 257.87"/><polygon class="cls-44" points="207.36 214.47 161.52 252.25 141.35 207.28 207.36 214.47"/><polygon class="cls-16" points="97.88 257.87 161.52 252.25 141.35 207.28 97.88 257.87"/><polygon class="cls-7" points="207.36 214.47 207.36 264 161.52 252.25 207.36 214.47"/><polygon class="cls-17" points="41.22 276.25 1 302.3 1 252.25 41.22 276.25"/><polygon class="cls-42" points="97.88 257.87 72.7 297.7 41.22 276.25 97.88 257.87"/><polygon class="cls-61" points="41.22 276.25 1 302.3 72.7 297.7 41.22 276.25"/><polygon class="cls-56" points="97.88 257.87 110.46 297.7 72.7 297.7 97.88 257.87"/><polygon class="cls-7" points="161.52 252.25 110.46 297.7 97.88 257.87 161.52 252.25"/><polygon class="cls-6" points="207.36 264 207.36 302.3 161.52 252.25 207.36 264"/><polygon class="cls-67" points="130.12 280.2 207.36 302.3 161.52 252.25 130.12 280.2"/><polygon class="cls-51" points="1 302.3 56.33 331.64 72.7 297.7 1 302.3"/><polygon class="cls-26" points="79.79 331.64 56.33 331.64 72.7 297.7 79.79 331.64"/><polygon class="cls-11" points="127.68 331.64 137.52 314.67 155.77 331.64 127.68 331.64"/><polygon class="cls-2" points="72.7 297.7 93.22 314.67 110.46 297.7 72.7 297.7"/><polygon class="cls-13" points="79.79 331.64 93.22 314.67 72.7 297.7 79.79 331.64"/><polygon class="cls-35" points="93.22 314.67 137.52 314.67 110.46 297.7 93.22 314.67"/><polygon class="cls-28" points="127.68 331.64 93.22 314.67 79.79 331.64 127.68 331.64"/><polygon class="cls-62" points="137.52 314.67 93.22 314.67 127.68 331.64 137.52 314.67"/><polygon class="cls-36" points="137.52 314.67 176.38 293.44 130.12 280.2 137.52 314.67"/><polygon class="cls-63" points="110.46 297.7 130.12 280.2 137.52 314.67 110.46 297.7"/><polygon class="cls-53" points="176.38 293.44 207.36 319.64 207.36 302.3 176.38 293.44"/><polygon class="cls-19" points="155.77 331.64 176.38 293.44 137.52 314.67 155.77 331.64"/><polygon class="cls-63" points="176.38 293.44 198.86 331.11 155.77 331.64 176.38 293.44"/><polygon class="cls-54" points="190.82 148.55 207.36 155.07 137.52 177.37 190.82 148.55"/><polygon class="cls-4" points="5.96 3.31 15.99 15.7 1 14.04 2.65 6.95 5.96 3.31"/><polygon class="cls-22" points="5.96 3.31 13 1 33.35 17.62 5.96 3.31"/><polygon class="cls-65" points="15.99 15.7 33.35 17.62 5.96 3.31 15.99 15.7"/><polygon class="cls-4" points="13 1 38.2 1 33.35 17.62 13 1"/><polygon class="cls-4" points="6.99 329.15 17.02 316.76 2.03 320.91 3.3 326.35 6.99 329.15"/><polygon class="cls-22" points="6.99 329.15 14.03 332.01 34.38 314.84 6.99 329.15"/><polygon class="cls-65" points="17.02 316.76 34.38 314.84 6.99 329.15 17.02 316.76"/><polygon class="cls-4" points="14.03 331.46 39.23 331.46 34.38 314.84 14.03 331.46"/><polygon class="cls-4" points="202.17 3.4 192.14 15.79 207.13 14.13 205.48 7.04 202.17 3.4"/><polygon class="cls-22" points="202.17 3.4 195.13 1.09 174.78 17.7 202.17 3.4"/><polygon class="cls-65" points="192.14 15.79 174.78 17.7 202.17 3.4 192.14 15.79"/><polygon class="cls-4" points="195.13 1.09 169.93 1.09 174.78 17.7 195.13 1.09"/><polygon class="cls-4" points="203.09 329.24 195.39 319.72 206.9 321 205.63 326.44 203.09 329.24"/><polygon class="cls-22" points="203.09 329.24 194.1 331.55 173.75 314.93 203.09 329.24"/><polygon class="cls-4" points="194.1 331.55 168.9 331.55 173.75 314.93 194.1 331.55"/><polygon class="cls-22" points="17.02 316.76 18.98 311.83 26.34 315.73 17.02 316.76"/><polygon class="cls-64" points="2.03 302.23 2.03 320.91 17.02 316.76 2.03 302.23"/><polygon class="cls-40" points="3.43 303.58 17.02 316.76 18.98 311.83 3.43 303.58"/><polygon class="cls-40" points="36.1 320.91 39.23 331.46 56.33 331.64 36.1 320.91"/><polygon class="cls-4" points="195.39 319.72 195.39 325.48 203.09 329.24 195.39 319.72"/><polygon class="cls-40" points="176.38 293.44 195.39 319.72 195.39 325.48 176.38 293.44"/><polygon class="cls-5" points="176.38 293.44 206.9 321 195.39 319.72 176.38 293.44"/><polygon class="cls-5" points="206.9 321 207.36 319.64 176.38 293.44 206.9 321"/><polygon class="cls-40" points="198.1 15.13 207.36 25.53 207.13 14.13 198.1 15.13"/><rect class="cls-27" x="1" y="1" width="206.36" height="330.64" rx="12" ry="12"/></svg>