<?xml version="1.0" encoding="UTF-8" standalone="no"?>
<!-- Created with Inkscape (http://www.inkscape.org/) -->

<svg
   width="60.603973mm"
   height="36.419041mm"
   viewBox="0 0 60.603973 36.419041"
   version="1.1"
   id="svg873"
   inkscape:version="1.1.2 (0a00cf5339, 2022-02-04)"
   sodipodi:docname="watermark4.svg"
   xmlns:inkscape="http://www.inkscape.org/namespaces/inkscape"
   xmlns:sodipodi="http://sodipodi.sourceforge.net/DTD/sodipodi-0.dtd"
   xmlns="http://www.w3.org/2000/svg"
   xmlns:svg="http://www.w3.org/2000/svg">
  <sodipodi:namedview
     id="namedview875"
     pagecolor="#ffffff"
     bordercolor="#666666"
     borderopacity="1.0"
     inkscape:pageshadow="2"
     inkscape:pageopacity="0.0"
     inkscape:pagecheckerboard="0"
     inkscape:document-units="mm"
     showgrid="false"
     units="mm"
     lock-margins="false"
     fit-margin-top="0"
     fit-margin-left="0"
     fit-margin-right="0"
     fit-margin-bottom="0"
     inkscape:zoom="2.8284271"
     inkscape:cx="37.830213"
     inkscape:cy="66.291261"
     inkscape:window-width="1920"
     inkscape:window-height="1019"
     inkscape:window-x="0"
     inkscape:window-y="31"
     inkscape:window-maximized="1"
     inkscape:current-layer="layer1" />
  <defs
     id="defs870">
    <inkscape:path-effect
       effect="envelope"
       id="path-effect16268"
       is_visible="true"
       lpeversion="1"
       yy="false"
       xx="false"
       bendpath1="M 50.073167,71.174909 H 89.710151"
       bendpath2="m 90.768484,71.174909 1.058333,8.387789"
       bendpath3="m 49.014834,79.562698 h 41.75365"
       bendpath4="m 49.014834,71.174909 -1.058333,8.387789"
       bendpath2-nodetypes="cc"
       bendpath4-nodetypes="cc"
       bendpath1-nodetypes="cc" />
    <inkscape:path-effect
       effect="perspective-envelope"
       up_left_point="49.014834,71.174909"
       up_right_point="90.768484,71.174909"
       down_left_point="49.014834,79.562698"
       down_right_point="90.768484,79.562698"
       id="path-effect16186"
       is_visible="true"
       lpeversion="1"
       deform_type="envelope_deformation"
       horizontal_mirror="false"
       vertical_mirror="false"
       overflow_perspective="false" />
    <inkscape:path-effect
       effect="fillet_chamfer"
       id="path-effect1228"
       is_visible="true"
       lpeversion="1"
       satellites_param="F,0,0,1,0,132.29167,0,1 @ F,0,0,1,0,132.29167,0,1 @ F,0,0,1,0,132.29167,0,1 @ F,0,0,1,0,132.29167,0,1"
       unit="px"
       method="auto"
       mode="F"
       radius="500"
       chamfer_steps="1"
       flexible="false"
       use_knot_distance="true"
       apply_no_radius="true"
       apply_with_radius="true"
       only_selected="false"
       hide_knots="false" />
    <inkscape:path-effect
       effect="envelope"
       id="path-effect16268-4"
       is_visible="true"
       lpeversion="1"
       yy="false"
       xx="false"
       bendpath1="M 50.073167,71.174909 H 89.710151"
       bendpath2="m 90.768484,71.174909 1.058333,8.387789"
       bendpath3="m 49.014834,79.562698 h 41.75365"
       bendpath4="m 49.014834,71.174909 -1.058333,8.387789"
       bendpath2-nodetypes="cc"
       bendpath4-nodetypes="cc"
       bendpath1-nodetypes="cc" />
    <inkscape:path-effect
       effect="envelope"
       id="path-effect16268-9"
       is_visible="true"
       lpeversion="1"
       yy="false"
       xx="false"
       bendpath1="M 50.073167,71.174909 H 89.710151"
       bendpath2="m 90.768484,71.174909 1.058333,8.387789"
       bendpath3="m 49.014834,79.562698 h 41.75365"
       bendpath4="m 49.014834,71.174909 -1.058333,8.387789"
       bendpath2-nodetypes="cc"
       bendpath4-nodetypes="cc"
       bendpath1-nodetypes="cc" />
    <inkscape:path-effect
       effect="envelope"
       id="path-effect16268-4-4"
       is_visible="true"
       lpeversion="1"
       yy="false"
       xx="false"
       bendpath1="M 50.073167,71.174909 H 89.710151"
       bendpath2="m 90.768484,71.174909 1.058333,8.387789"
       bendpath3="m 49.014834,79.562698 h 41.75365"
       bendpath4="m 49.014834,71.174909 -1.058333,8.387789"
       bendpath2-nodetypes="cc"
       bendpath4-nodetypes="cc"
       bendpath1-nodetypes="cc" />
    <inkscape:path-effect
       effect="envelope"
       id="path-effect16268-8"
       is_visible="true"
       lpeversion="1"
       yy="false"
       xx="false"
       bendpath1="M 50.073167,71.174909 H 89.710151"
       bendpath2="m 90.768484,71.174909 1.058333,8.387789"
       bendpath3="m 49.014834,79.562698 h 41.75365"
       bendpath4="m 49.014834,71.174909 -1.058333,8.387789"
       bendpath2-nodetypes="cc"
       bendpath4-nodetypes="cc"
       bendpath1-nodetypes="cc" />
    <inkscape:path-effect
       effect="envelope"
       id="path-effect16268-4-9"
       is_visible="true"
       lpeversion="1"
       yy="false"
       xx="false"
       bendpath1="M 50.073167,71.174909 H 89.710151"
       bendpath2="m 90.768484,71.174909 1.058333,8.387789"
       bendpath3="m 49.014834,79.562698 h 41.75365"
       bendpath4="m 49.014834,71.174909 -1.058333,8.387789"
       bendpath2-nodetypes="cc"
       bendpath4-nodetypes="cc"
       bendpath1-nodetypes="cc" />
    <inkscape:path-effect
       effect="envelope"
       id="path-effect16268-9-7"
       is_visible="true"
       lpeversion="1"
       yy="false"
       xx="false"
       bendpath1="M 50.073167,71.174909 H 89.710151"
       bendpath2="m 90.768484,71.174909 1.058333,8.387789"
       bendpath3="m 49.014834,79.562698 h 41.75365"
       bendpath4="m 49.014834,71.174909 -1.058333,8.387789"
       bendpath2-nodetypes="cc"
       bendpath4-nodetypes="cc"
       bendpath1-nodetypes="cc" />
    <inkscape:path-effect
       effect="envelope"
       id="path-effect16268-4-4-7"
       is_visible="true"
       lpeversion="1"
       yy="false"
       xx="false"
       bendpath1="M 50.073167,71.174909 H 89.710151"
       bendpath2="m 90.768484,71.174909 1.058333,8.387789"
       bendpath3="m 49.014834,79.562698 h 41.75365"
       bendpath4="m 49.014834,71.174909 -1.058333,8.387789"
       bendpath2-nodetypes="cc"
       bendpath4-nodetypes="cc"
       bendpath1-nodetypes="cc" />
    <inkscape:path-effect
       effect="envelope"
       id="path-effect16268-8-1"
       is_visible="true"
       lpeversion="1"
       yy="false"
       xx="false"
       bendpath1="M 50.073167,71.174909 H 89.710151"
       bendpath2="m 90.768484,71.174909 1.058333,8.387789"
       bendpath3="m 49.014834,79.562698 h 41.75365"
       bendpath4="m 49.014834,71.174909 -1.058333,8.387789"
       bendpath2-nodetypes="cc"
       bendpath4-nodetypes="cc"
       bendpath1-nodetypes="cc" />
    <inkscape:path-effect
       effect="envelope"
       id="path-effect16268-4-9-0"
       is_visible="true"
       lpeversion="1"
       yy="false"
       xx="false"
       bendpath1="M 50.073167,71.174909 H 89.710151"
       bendpath2="m 90.768484,71.174909 1.058333,8.387789"
       bendpath3="m 49.014834,79.562698 h 41.75365"
       bendpath4="m 49.014834,71.174909 -1.058333,8.387789"
       bendpath2-nodetypes="cc"
       bendpath4-nodetypes="cc"
       bendpath1-nodetypes="cc" />
    <inkscape:path-effect
       effect="envelope"
       id="path-effect16268-9-7-1"
       is_visible="true"
       lpeversion="1"
       yy="false"
       xx="false"
       bendpath1="M 50.073167,71.174909 H 89.710151"
       bendpath2="m 90.768484,71.174909 1.058333,8.387789"
       bendpath3="m 49.014834,79.562698 h 41.75365"
       bendpath4="m 49.014834,71.174909 -1.058333,8.387789"
       bendpath2-nodetypes="cc"
       bendpath4-nodetypes="cc"
       bendpath1-nodetypes="cc" />
    <inkscape:path-effect
       effect="envelope"
       id="path-effect16268-4-4-7-3"
       is_visible="true"
       lpeversion="1"
       yy="false"
       xx="false"
       bendpath1="M 50.073167,71.174909 H 89.710151"
       bendpath2="m 90.768484,71.174909 1.058333,8.387789"
       bendpath3="m 49.014834,79.562698 h 41.75365"
       bendpath4="m 49.014834,71.174909 -1.058333,8.387789"
       bendpath2-nodetypes="cc"
       bendpath4-nodetypes="cc"
       bendpath1-nodetypes="cc" />
    <inkscape:path-effect
       effect="envelope"
       id="path-effect16268-8-7"
       is_visible="true"
       lpeversion="1"
       yy="false"
       xx="false"
       bendpath1="M 50.073167,71.174909 H 89.710151"
       bendpath2="m 90.768484,71.174909 1.058333,8.387789"
       bendpath3="m 49.014834,79.562698 h 41.75365"
       bendpath4="m 49.014834,71.174909 -1.058333,8.387789"
       bendpath2-nodetypes="cc"
       bendpath4-nodetypes="cc"
       bendpath1-nodetypes="cc" />
    <inkscape:path-effect
       effect="envelope"
       id="path-effect16268-4-9-1"
       is_visible="true"
       lpeversion="1"
       yy="false"
       xx="false"
       bendpath1="M 50.073167,71.174909 H 89.710151"
       bendpath2="m 90.768484,71.174909 1.058333,8.387789"
       bendpath3="m 49.014834,79.562698 h 41.75365"
       bendpath4="m 49.014834,71.174909 -1.058333,8.387789"
       bendpath2-nodetypes="cc"
       bendpath4-nodetypes="cc"
       bendpath1-nodetypes="cc" />
    <inkscape:path-effect
       effect="envelope"
       id="path-effect16268-9-7-3"
       is_visible="true"
       lpeversion="1"
       yy="false"
       xx="false"
       bendpath1="M 50.073167,71.174909 H 89.710151"
       bendpath2="m 90.768484,71.174909 1.058333,8.387789"
       bendpath3="m 49.014834,79.562698 h 41.75365"
       bendpath4="m 49.014834,71.174909 -1.058333,8.387789"
       bendpath2-nodetypes="cc"
       bendpath4-nodetypes="cc"
       bendpath1-nodetypes="cc" />
    <inkscape:path-effect
       effect="envelope"
       id="path-effect16268-4-4-7-8"
       is_visible="true"
       lpeversion="1"
       yy="false"
       xx="false"
       bendpath1="M 50.073167,71.174909 H 89.710151"
       bendpath2="m 90.768484,71.174909 1.058333,8.387789"
       bendpath3="m 49.014834,79.562698 h 41.75365"
       bendpath4="m 49.014834,71.174909 -1.058333,8.387789"
       bendpath2-nodetypes="cc"
       bendpath4-nodetypes="cc"
       bendpath1-nodetypes="cc" />
    <inkscape:path-effect
       effect="envelope"
       id="path-effect16268-9-3"
       is_visible="true"
       lpeversion="1"
       yy="false"
       xx="false"
       bendpath1="M 50.073167,71.174909 H 89.710151"
       bendpath2="m 90.768484,71.174909 1.058333,8.387789"
       bendpath3="m 49.014834,79.562698 h 41.75365"
       bendpath4="m 49.014834,71.174909 -1.058333,8.387789"
       bendpath2-nodetypes="cc"
       bendpath4-nodetypes="cc"
       bendpath1-nodetypes="cc" />
    <inkscape:path-effect
       effect="envelope"
       id="path-effect16268-4-4-71"
       is_visible="true"
       lpeversion="1"
       yy="false"
       xx="false"
       bendpath1="M 50.073167,71.174909 H 89.710151"
       bendpath2="m 90.768484,71.174909 1.058333,8.387789"
       bendpath3="m 49.014834,79.562698 h 41.75365"
       bendpath4="m 49.014834,71.174909 -1.058333,8.387789"
       bendpath2-nodetypes="cc"
       bendpath4-nodetypes="cc"
       bendpath1-nodetypes="cc" />
    <inkscape:path-effect
       effect="envelope"
       id="path-effect16268-9-7-2"
       is_visible="true"
       lpeversion="1"
       yy="false"
       xx="false"
       bendpath1="M 50.073167,71.174909 H 89.710151"
       bendpath2="m 90.768484,71.174909 1.058333,8.387789"
       bendpath3="m 49.014834,79.562698 h 41.75365"
       bendpath4="m 49.014834,71.174909 -1.058333,8.387789"
       bendpath2-nodetypes="cc"
       bendpath4-nodetypes="cc"
       bendpath1-nodetypes="cc" />
    <inkscape:path-effect
       effect="envelope"
       id="path-effect16268-4-4-7-2"
       is_visible="true"
       lpeversion="1"
       yy="false"
       xx="false"
       bendpath1="M 50.073167,71.174909 H 89.710151"
       bendpath2="m 90.768484,71.174909 1.058333,8.387789"
       bendpath3="m 49.014834,79.562698 h 41.75365"
       bendpath4="m 49.014834,71.174909 -1.058333,8.387789"
       bendpath2-nodetypes="cc"
       bendpath4-nodetypes="cc"
       bendpath1-nodetypes="cc" />
    <inkscape:path-effect
       effect="envelope"
       id="path-effect16268-9-7-1-1"
       is_visible="true"
       lpeversion="1"
       yy="false"
       xx="false"
       bendpath1="M 50.073167,71.174909 H 89.710151"
       bendpath2="m 90.768484,71.174909 1.058333,8.387789"
       bendpath3="m 49.014834,79.562698 h 41.75365"
       bendpath4="m 49.014834,71.174909 -1.058333,8.387789"
       bendpath2-nodetypes="cc"
       bendpath4-nodetypes="cc"
       bendpath1-nodetypes="cc" />
    <inkscape:path-effect
       effect="envelope"
       id="path-effect16268-4-4-7-3-5"
       is_visible="true"
       lpeversion="1"
       yy="false"
       xx="false"
       bendpath1="M 50.073167,71.174909 H 89.710151"
       bendpath2="m 90.768484,71.174909 1.058333,8.387789"
       bendpath3="m 49.014834,79.562698 h 41.75365"
       bendpath4="m 49.014834,71.174909 -1.058333,8.387789"
       bendpath2-nodetypes="cc"
       bendpath4-nodetypes="cc"
       bendpath1-nodetypes="cc" />
  </defs>
  <g
     inkscape:label="Layer 1"
     inkscape:groupmode="layer"
     id="layer1">
    <g
       aria-label="Drinkers"
       id="text6689"
       style="font-size:10.5833px;line-height:1.25;font-family:'Sugar Snow';-inkscape-font-specification:'Sugar Snow';stroke-width:0.264583"
       inkscape:path-effect="#path-effect16268"
       transform="matrix(0.72484039,0,0,0.72484039,-20.358313,-36.420831)">
      <path
         d="m 49.237074,76.953918 c -0.02117,-0.423332 -0.04586,-0.843136 -0.07408,-1.259413 -0.02822,-0.416276 -0.05291,-0.83608 -0.07408,-1.259412 -0.01411,-0.338666 -0.02822,-0.677332 -0.04233,-1.015997 -0.0071,-0.345721 -0.01764,-0.687915 -0.03175,-1.02658 0,-0.105833 0.01764,-0.229305 0.05292,-0.370416 0.07055,-0.352777 0.296333,-0.550332 0.677332,-0.592665 0.02822,-0.0071 0.05644,-0.01058 0.08467,-0.01058 0.02822,-0.0071 0.05997,-0.01411 0.09525,-0.02117 0.677331,-0.162277 1.298217,-0.155221 1.86266,0.02117 0.564443,0.169333 1.075969,0.472721 1.534579,0.910164 1.001885,0.938386 1.432273,2.095493 1.291162,3.471322 -0.02117,0.246944 -0.05644,0.493888 -0.105833,0.740831 -0.04233,0.239888 -0.112889,0.472721 -0.211666,0.698498 -0.225777,0.550331 -0.546803,0.984247 -0.96308,1.301746 -0.409221,0.317499 -0.896052,0.543276 -1.460495,0.677331 -0.197555,0.04939 -0.39511,0.08819 -0.592665,0.116416 -0.197555,0.02822 -0.398637,0.05644 -0.603248,0.08467 -0.112889,0.01411 -0.222249,0.02117 -0.328082,0.02117 -0.105833,0.0071 -0.215194,0.0071 -0.328083,0 -0.105833,0 -0.201082,-0.02117 -0.285749,-0.0635 -0.07761,-0.04939 -0.151694,-0.112886 -0.222249,-0.190499 -0.190499,-0.211666 -0.285749,-0.479776 -0.285749,-0.804331 v -1.428745 z m 1.693328,0.666748 c 0.112889,0.02117 0.222249,0.02822 0.328082,0.02117 0.105833,-0.0071 0.208139,-0.02469 0.306916,-0.05292 0.268111,-0.07055 0.500943,-0.179916 0.698498,-0.328082 0.204611,-0.148167 0.36336,-0.352777 0.476248,-0.613832 0.105833,-0.239888 0.172861,-0.486832 0.201083,-0.740831 0.02822,-0.253999 0.03528,-0.507998 0.02117,-0.761997 -0.01411,-0.289277 -0.0882,-0.575027 -0.22225,-0.857248 -0.134055,-0.282221 -0.306915,-0.529165 -0.518581,-0.740831 -0.211666,-0.211666 -0.451554,-0.373943 -0.719665,-0.486831 -0.26811,-0.112889 -0.543276,-0.141112 -0.825497,-0.08467 0.04233,0.79022 0.08467,1.569856 0.127,2.338909 0.04233,0.761998 0.08467,1.531051 0.126999,2.30716 z"
         id="path16151"
         inkscape:original-d="m 49.237074,76.953918 q -0.03175,-0.634998 -0.07408,-1.259413 -0.04233,-0.624414 -0.07408,-1.259412 -0.02117,-0.507999 -0.04233,-1.015997 -0.01058,-0.518582 -0.03175,-1.02658 0,-0.15875 0.05292,-0.370416 0.105833,-0.529165 0.677332,-0.592665 0.04233,-0.01058 0.08467,-0.01058 0.04233,-0.01058 0.09525,-0.02117 1.015996,-0.243416 1.86266,0.02117 0.846664,0.253999 1.534579,0.910164 1.502828,1.407579 1.291162,3.471322 -0.03175,0.370416 -0.105833,0.740831 -0.0635,0.359832 -0.211666,0.698498 -0.338665,0.825497 -0.96308,1.301746 -0.613831,0.476248 -1.460495,0.677331 -0.296333,0.07408 -0.592665,0.116416 -0.296332,0.04233 -0.603248,0.08467 -0.169333,0.02117 -0.328082,0.02117 -0.15875,0.01058 -0.328083,0 -0.158749,0 -0.285749,-0.0635 -0.116416,-0.07408 -0.222249,-0.190499 -0.285749,-0.317499 -0.285749,-0.804331 v -1.428745 z m 1.693328,0.666748 q 0.169333,0.03175 0.328082,0.02117 0.15875,-0.01058 0.306916,-0.05292 0.402166,-0.105833 0.698498,-0.328082 0.306916,-0.22225 0.476248,-0.613832 0.15875,-0.359832 0.201083,-0.740831 0.04233,-0.380999 0.02117,-0.761997 -0.02117,-0.433916 -0.22225,-0.857248 -0.201082,-0.423332 -0.518581,-0.740831 -0.317499,-0.317499 -0.719665,-0.486831 -0.402165,-0.169333 -0.825497,-0.08467 0.0635,1.18533 0.127,2.338909 0.0635,1.142997 0.126999,2.30716 z" />
      <path
         d="m 59.227691,75.715672 c 0.02822,0.03528 0.05291,0.0635 0.07408,0.08467 0.02117,0.02117 0.04233,0.04233 0.0635,0.0635 0.261055,0.26811 0.45861,0.564442 0.592665,0.888997 0.134055,0.317499 0.197555,0.666748 0.190499,1.047747 0,0.345721 -0.01058,0.691442 -0.03175,1.037163 -0.01411,0.162277 -0.05645,0.285749 -0.126999,0.370416 -0.0635,0.07761 -0.176389,0.123472 -0.338666,0.137583 -0.26811,0.02822 -0.546803,0.02116 -0.83608,-0.02117 -0.141111,-0.02117 -0.239888,-0.07055 -0.296333,-0.148166 -0.05645,-0.07761 -0.08114,-0.1905 -0.07408,-0.338666 0.0071,-0.134055 0.01411,-0.264582 0.02117,-0.391582 0.0071,-0.134055 0.01411,-0.26811 0.02117,-0.402165 0,-0.07761 0,-0.148167 0,-0.211666 0,-0.07055 -0.0035,-0.141111 -0.01058,-0.211666 -0.0635,-0.437443 -0.306916,-0.709081 -0.730248,-0.814914 -0.126999,-0.02822 -0.257527,-0.0388 -0.391582,-0.03175 -0.126999,0.0071 -0.261054,0.01764 -0.402165,0.03175 -0.0071,0.26811 -0.01411,0.560915 -0.02117,0.878414 -0.0071,0.317499 -0.01411,0.606775 -0.02117,0.86783 -0.0071,0.07761 -0.01411,0.151694 -0.02117,0.222249 -0.0071,0.07055 -0.01058,0.144639 -0.01058,0.22225 -0.0071,0.119944 -0.05291,0.225777 -0.137583,0.317499 -0.08467,0.08467 -0.194027,0.130527 -0.328082,0.137583 -0.127,0.01411 -0.257528,0.01764 -0.391583,0.01058 -0.126999,0 -0.253999,-0.0071 -0.380998,-0.02117 -0.162277,-0.02117 -0.275166,-0.07055 -0.338666,-0.148166 -0.05645,-0.07761 -0.08467,-0.197555 -0.08467,-0.359832 0.01411,-0.373943 0.0247,-0.776109 0.03175,-1.206496 0.01411,-0.430388 0.02822,-0.832553 0.04233,-1.206496 0.02117,-0.536221 0.02469,-1.068914 0.01058,-1.598079 -0.01411,-0.529165 -0.04234,-1.05833 -0.08467,-1.587495 -0.01411,-0.197555 -0.03175,-0.395109 -0.05292,-0.592664 -0.01411,-0.197555 -0.02822,-0.39511 -0.04233,-0.592665 -0.01411,-0.134055 -3e-6,-0.232833 0.04233,-0.296333 0.04233,-0.07055 0.123472,-0.134055 0.243416,-0.190499 0.141111,-0.07761 0.289277,-0.126999 0.444499,-0.148166 0.155221,-0.02822 0.313971,-0.04939 0.476248,-0.0635 0.225777,-0.02117 0.455082,-0.03881 0.687915,-0.05292 0.232833,-0.01411 0.462137,-0.01764 0.687914,-0.01058 0.183444,0.0071 0.36336,0.02116 0.539748,0.04233 0.176389,0.02117 0.352777,0.05644 0.529165,0.105833 0.472721,0.119945 0.850192,0.352777 1.132413,0.698498 0.289277,0.338666 0.455083,0.751415 0.497416,1.238246 0.01411,0.197555 3e-6,0.388055 -0.04233,0.571498 -0.04233,0.176389 -0.102305,0.352777 -0.179916,0.529165 -0.176388,0.380999 -0.423332,0.702026 -0.740831,0.963081 -0.05645,0.05645 -0.127002,0.116419 -0.211666,0.179916 z m -2.243659,-0.751414 c 0.246943,-0.0635 0.493887,-0.155222 0.740831,-0.275166 0.253999,-0.127 0.45861,-0.261055 0.613831,-0.402166 0.0635,-0.05645 0.123472,-0.123474 0.179916,-0.201082 0.0635,-0.07761 0.112889,-0.155222 0.148166,-0.232833 0.07761,-0.162277 0.08467,-0.310444 0.02117,-0.444499 -0.05645,-0.134055 -0.172863,-0.225776 -0.349249,-0.275165 -0.246943,-0.07055 -0.493887,-0.09878 -0.740831,-0.08467 -0.239888,0.0071 -0.483304,0.01411 -0.730248,0.02117 0.02117,0.324555 0.03881,0.642054 0.05292,0.952497 0.02117,0.310443 0.04233,0.624415 0.0635,0.941914 z"
         id="path16153"
         inkscape:original-d="m 59.227691,75.715672 q 0.04233,0.05292 0.07408,0.08467 0.03175,0.03175 0.0635,0.0635 0.391582,0.402165 0.592665,0.888997 0.201083,0.476249 0.190499,1.047747 0,0.518582 -0.03175,1.037163 -0.02117,0.243416 -0.126999,0.370416 -0.09525,0.116416 -0.338666,0.137583 -0.402165,0.04233 -0.83608,-0.02117 -0.211666,-0.03175 -0.296333,-0.148166 -0.08467,-0.116417 -0.07408,-0.338666 0.01058,-0.201082 0.02117,-0.391582 0.01058,-0.201083 0.02117,-0.402165 0,-0.116417 0,-0.211666 0,-0.105833 -0.01058,-0.211666 -0.09525,-0.656165 -0.730248,-0.814914 -0.190499,-0.04233 -0.391582,-0.03175 -0.190499,0.01058 -0.402165,0.03175 -0.01058,0.402165 -0.02117,0.878414 -0.01058,0.476248 -0.02117,0.86783 -0.01058,0.116416 -0.02117,0.222249 -0.01058,0.105833 -0.01058,0.22225 -0.01058,0.179916 -0.137583,0.317499 -0.127,0.126999 -0.328082,0.137583 -0.1905,0.02117 -0.391583,0.01058 -0.190499,0 -0.380998,-0.02117 -0.243416,-0.03175 -0.338666,-0.148166 -0.08467,-0.116416 -0.08467,-0.359832 0.02117,-0.560915 0.03175,-1.206496 0.02117,-0.645582 0.04233,-1.206496 0.03175,-0.804331 0.01058,-1.598079 -0.02117,-0.793747 -0.08467,-1.587495 -0.02117,-0.296332 -0.05292,-0.592664 -0.02117,-0.296333 -0.04233,-0.592665 -0.02117,-0.201083 0.04233,-0.296333 0.0635,-0.105833 0.243416,-0.190499 0.211666,-0.116416 0.444499,-0.148166 0.232832,-0.04233 0.476248,-0.0635 0.338666,-0.03175 0.687915,-0.05292 0.349249,-0.02117 0.687914,-0.01058 0.275166,0.01058 0.539748,0.04233 0.264583,0.03175 0.529165,0.105833 0.709081,0.179917 1.132413,0.698498 0.433916,0.507999 0.497416,1.238246 0.02117,0.296333 -0.04233,0.571498 -0.0635,0.264583 -0.179916,0.529165 -0.264582,0.571499 -0.740831,0.963081 -0.08467,0.08467 -0.211666,0.179916 z m -2.243659,-0.751414 q 0.370415,-0.09525 0.740831,-0.275166 0.380999,-0.1905 0.613831,-0.402166 0.09525,-0.08467 0.179916,-0.201082 0.09525,-0.116417 0.148166,-0.232833 0.116417,-0.243416 0.02117,-0.444499 -0.08467,-0.201082 -0.349249,-0.275165 -0.370415,-0.105833 -0.740831,-0.08467 -0.359832,0.01058 -0.730248,0.02117 0.03175,0.486832 0.05292,0.952497 0.03175,0.465665 0.0635,0.941914 z" />
      <path
         d="m 61.005671,72.318433 c 0.0071,-0.09172 0.01411,-0.183444 0.02117,-0.275166 0.0071,-0.09172 0.01764,-0.183444 0.03175,-0.275166 0.01411,-0.09878 0.04939,-0.176388 0.105833,-0.232833 0.0635,-0.05645 0.141111,-0.08467 0.232833,-0.08467 0.183443,0 0.363359,0.0071 0.539748,0.02117 0.176388,0.0071 0.356304,0.01764 0.539748,0.03175 0.05645,0 0.102308,0.02117 0.137583,0.0635 0.03528,0.04233 0.05997,0.09172 0.07408,0.148167 0.01411,0.07761 0.0247,0.155221 0.03175,0.232832 0.0071,0.07761 0.01058,0.155222 0.01058,0.232833 -0.01411,0.585609 -0.03175,1.167691 -0.05292,1.746244 -0.02117,0.571498 -0.03881,1.150052 -0.05292,1.735661 -0.01411,0.507999 -0.01764,1.015997 -0.01058,1.523995 0.0071,0.507999 0.01058,1.015997 0.01058,1.523996 0,0.05645 -0.0035,0.109363 -0.01058,0.158749 0,0.04939 0,0.102303 0,0.15875 -0.01411,0.141111 -0.06703,0.257527 -0.158749,0.349248 -0.08467,0.08467 -0.197555,0.130528 -0.338666,0.137583 -0.126999,0 -0.253999,-0.0071 -0.380999,-0.02117 -0.126999,-0.0071 -0.253999,-0.01764 -0.380999,-0.03175 -0.141111,-0.02117 -0.239888,-0.05997 -0.296332,-0.116416 -0.04939,-0.0635 -0.07761,-0.165805 -0.08467,-0.306916 -0.02117,-0.493887 -0.03175,-0.991302 -0.03175,-1.492245 -0.01411,-0.896053 -0.01059,-1.774467 0.01058,-2.635242 0.02822,-0.860775 0.04586,-1.725078 0.05292,-2.592908 z"
         id="path16155"
         inkscape:original-d="m 61.005671,72.318433 q 0.01058,-0.137583 0.02117,-0.275166 0.01058,-0.137583 0.03175,-0.275166 0.02117,-0.148166 0.105833,-0.232833 0.09525,-0.08467 0.232833,-0.08467 0.275165,0 0.539748,0.02117 0.264582,0.01058 0.539748,0.03175 0.08467,0 0.137583,0.0635 0.05292,0.0635 0.07408,0.148167 0.02117,0.116416 0.03175,0.232832 0.01058,0.116416 0.01058,0.232833 -0.02117,0.878414 -0.05292,1.746244 -0.03175,0.857247 -0.05292,1.735661 -0.02117,0.761998 -0.01058,1.523995 0.01058,0.761998 0.01058,1.523996 0,0.08467 -0.01058,0.158749 0,0.07408 0,0.15875 -0.02117,0.211666 -0.158749,0.349248 -0.127,0.127 -0.338666,0.137583 -0.190499,0 -0.380999,-0.02117 -0.190499,-0.01058 -0.380999,-0.03175 -0.211666,-0.03175 -0.296332,-0.116416 -0.07408,-0.09525 -0.08467,-0.306916 -0.03175,-0.740831 -0.03175,-1.492245 -0.02117,-1.344079 0.01058,-2.635242 0.04233,-1.291163 0.05292,-2.592908 z" />
      <path
         d="m 66.540727,75.26059 c 0,-0.0635 0.0035,-0.116417 0.01058,-0.15875 0.0071,-0.04233 0.01411,-0.08114 0.02117,-0.116416 0.0071,-0.275166 0.01411,-0.546804 0.02117,-0.814914 0.01411,-0.26811 0.01764,-0.539748 0.01058,-0.814914 0,-0.218721 -0.0035,-0.433915 -0.01058,-0.645581 0,-0.218722 -0.0035,-0.440971 -0.01058,-0.666748 -0.0071,-0.225777 0.03528,-0.388055 0.126999,-0.486832 0.09172,-0.09878 0.239888,-0.148166 0.444499,-0.148166 0.282221,-0.01411 0.557387,0.0071 0.825497,0.0635 0.119944,0.01411 0.20461,0.05292 0.253999,0.116416 0.04939,0.0635 0.07761,0.15875 0.08467,0.285749 0.01411,0.416277 0.01411,0.836081 0,1.259413 -0.0071,0.275165 -0.01764,0.553859 -0.03175,0.83608 -0.01411,0.275166 -0.01764,0.557387 -0.01058,0.846664 -0.0071,0.507999 -0.01058,1.012469 -0.01058,1.513412 0.0071,0.493887 0.01411,0.99483 0.02117,1.502829 0,0.148166 -0.0035,0.296332 -0.01058,0.444498 0,0.148167 -0.0035,0.299861 -0.01058,0.455082 -0.01411,0.211666 -0.0635,0.36336 -0.148166,0.455082 -0.08467,0.08467 -0.225777,0.134055 -0.423332,0.148166 -0.07761,0.0071 -0.155222,0.01058 -0.232833,0.01058 -0.07055,0 -0.144638,0 -0.222249,0 -0.148166,0 -0.271638,-0.03528 -0.370415,-0.105833 -0.09878,-0.07055 -0.186972,-0.176388 -0.264583,-0.317499 -0.190499,-0.409221 -0.384526,-0.814915 -0.582081,-1.21708 -0.197555,-0.402165 -0.398638,-0.811386 -0.603248,-1.227663 -0.105833,-0.225777 -0.218722,-0.451554 -0.338666,-0.677331 -0.05645,0.03528 -0.0882,0.07761 -0.09525,0.127 0,0.04939 0,0.09525 0,0.137583 -0.0071,0.423332 -0.01764,0.850192 -0.03175,1.280579 -0.0071,0.423332 -0.0035,0.85372 0.01058,1.291163 0,0.26811 -0.0635,0.469193 -0.1905,0.603248 -0.119944,0.126999 -0.328082,0.17286 -0.624414,0.137582 -0.07055,-0.01411 -0.141111,-0.01764 -0.211666,-0.01058 -0.0635,0 -0.127,-0.0035 -0.1905,-0.01058 -0.176388,-0.01411 -0.303387,-0.05997 -0.380998,-0.137583 -0.07055,-0.07761 -0.09878,-0.208138 -0.08467,-0.391582 0.0071,-0.444499 0.01411,-0.881942 0.02117,-1.312329 0.01411,-0.437443 0.02822,-0.874886 0.04233,-1.312329 0,-0.0635 0,-0.123472 0,-0.179917 0,-0.0635 0.0035,-0.127 0.01058,-0.190499 0.01411,-0.451554 0.01411,-0.917219 0,-1.396995 -0.0071,-0.486832 -0.0035,-0.952497 0.01058,-1.396996 0.0071,-0.162277 0.0071,-0.317499 0,-0.465665 0,-0.155222 0.0035,-0.313972 0.01058,-0.476249 0,-0.218721 0.04586,-0.352776 0.137583,-0.402165 0.09878,-0.04939 0.253999,-0.08114 0.465665,-0.09525 0.310443,-0.02117 0.546804,0.02469 0.709081,0.137583 0.169333,0.112889 0.310443,0.317499 0.423332,0.613832 0.07761,0.218721 0.162277,0.433915 0.253999,0.645581 0.09172,0.20461 0.186972,0.405693 0.285749,0.603248 0.112889,0.246943 0.229305,0.483304 0.349249,0.709081 0.127,0.225777 0.250472,0.451554 0.370416,0.677331 0.02117,0.03528 0.04233,0.07408 0.0635,0.116416 0.02822,0.04233 0.0635,0.09525 0.105833,0.15875 z"
         id="path16157"
         inkscape:original-d="m 66.540727,75.26059 q 0,-0.09525 0.01058,-0.15875 0.01058,-0.0635 0.02117,-0.116416 0.01058,-0.412749 0.02117,-0.814914 0.02117,-0.402165 0.01058,-0.814914 0,-0.328082 -0.01058,-0.645581 0,-0.328083 -0.01058,-0.666748 -0.01058,-0.338666 0.126999,-0.486832 0.137583,-0.148166 0.444499,-0.148166 0.423332,-0.02117 0.825497,0.0635 0.179916,0.02117 0.253999,0.116416 0.07408,0.09525 0.08467,0.285749 0.02117,0.624415 0,1.259413 -0.01058,0.412748 -0.03175,0.83608 -0.02117,0.412749 -0.01058,0.846664 -0.01058,0.761998 -0.01058,1.513412 0.01058,0.740831 0.02117,1.502829 0,0.222249 -0.01058,0.444498 0,0.22225 -0.01058,0.455082 -0.02117,0.317499 -0.148166,0.455082 -0.127,0.127 -0.423332,0.148166 -0.116416,0.01058 -0.232833,0.01058 -0.105833,0 -0.222249,0 -0.222249,0 -0.370415,-0.105833 -0.148167,-0.105833 -0.264583,-0.317499 -0.285749,-0.613832 -0.582081,-1.21708 -0.296333,-0.603248 -0.603248,-1.227663 -0.15875,-0.338665 -0.338666,-0.677331 -0.08467,0.05292 -0.09525,0.127 0,0.07408 0,0.137583 -0.01058,0.634998 -0.03175,1.280579 -0.01058,0.634998 0.01058,1.291163 0,0.402165 -0.1905,0.603248 -0.179916,0.190499 -0.624414,0.137582 -0.105833,-0.02117 -0.211666,-0.01058 -0.09525,0 -0.1905,-0.01058 -0.264582,-0.02117 -0.380998,-0.137583 -0.105833,-0.116416 -0.08467,-0.391582 0.01058,-0.666748 0.02117,-1.312329 0.02117,-0.656165 0.04233,-1.312329 0,-0.09525 0,-0.179917 0,-0.09525 0.01058,-0.190499 0.02117,-0.677331 0,-1.396995 -0.01058,-0.730248 0.01058,-1.396996 0.01058,-0.243416 0,-0.465665 0,-0.232833 0.01058,-0.476249 0,-0.328082 0.137583,-0.402165 0.148166,-0.07408 0.465665,-0.09525 0.465665,-0.03175 0.709081,0.137583 0.253999,0.169333 0.423332,0.613832 0.116416,0.328082 0.253999,0.645581 0.137583,0.306915 0.285749,0.603248 0.169333,0.370415 0.349249,0.709081 0.1905,0.338666 0.370416,0.677331 0.03175,0.05292 0.0635,0.116416 0.04233,0.0635 0.105833,0.15875 z" />
      <path
         d="m 72.118116,75.556922 c 0,0.02117 0.0035,0.03528 0.01058,0.04233 0.444499,0.317499 0.793748,0.666747 1.047747,1.047746 0.261055,0.380999 0.472721,0.814914 0.634998,1.301746 0.03528,0.112889 0.07056,0.229305 0.105833,0.349249 0.03528,0.112889 0.06703,0.229305 0.09525,0.349249 0.04939,0.239888 0.01058,0.433915 -0.116416,0.582081 -0.126999,0.141111 -0.317499,0.215194 -0.571498,0.22225 -0.09878,0.0071 -0.194027,0.0071 -0.285749,0 -0.09172,-0.0071 -0.186972,-0.01764 -0.285749,-0.03175 -0.141111,-0.02117 -0.239888,-0.05644 -0.296333,-0.105833 -0.04939,-0.04939 -0.08819,-0.148164 -0.116416,-0.296333 -0.02822,-0.119944 -0.05644,-0.239888 -0.08467,-0.359832 -0.02822,-0.119944 -0.05997,-0.239888 -0.09525,-0.359832 -0.05645,-0.183444 -0.127002,-0.342194 -0.211666,-0.476249 -0.08467,-0.141111 -0.186972,-0.289277 -0.306916,-0.444498 -0.246943,-0.317499 -0.557387,-0.550332 -0.93133,-0.698498 -0.02822,-0.01411 -0.05291,-0.02117 -0.07408,-0.02117 -0.01411,-0.0071 -0.0247,-0.0071 -0.03175,0 -0.0071,0 -0.01764,0 -0.03175,0 0,0.08467 -0.0035,0.169333 -0.01058,0.254 0,0.07761 0.0035,0.155221 0.01058,0.232832 0.01411,0.282221 0.02822,0.564443 0.04233,0.846664 0.02117,0.275166 0.03881,0.55386 0.05292,0.836081 0.0071,0.141111 -0.01764,0.292805 -0.07408,0.455082 -0.02117,0.07761 -0.0635,0.137583 -0.127,0.179916 -0.0635,0.04939 -0.137583,0.07761 -0.222249,0.08467 -0.261055,0.02117 -0.518582,0.02117 -0.772581,0 -0.26811,-0.02117 -0.419804,-0.169333 -0.455082,-0.444498 -0.01411,-0.141111 -0.03175,-0.285749 -0.05292,-0.433916 -0.02117,-0.155221 -0.03175,-0.306915 -0.03175,-0.455081 -0.02117,-0.874887 -0.04233,-1.746245 -0.0635,-2.614075 -0.02117,-0.867831 -0.03881,-1.739189 -0.05292,-2.614075 -0.0071,-0.183444 -0.01764,-0.359832 -0.03175,-0.529165 -0.0071,-0.176389 -0.01058,-0.352777 -0.01058,-0.529165 -0.0071,-0.1905 0.02117,-0.321028 0.08467,-0.391583 0.07055,-0.07761 0.201083,-0.126999 0.391582,-0.148166 0.134055,-0.01411 0.264582,-0.0247 0.391582,-0.03175 0.134055,-0.0071 0.26811,-0.01411 0.402165,-0.02117 0.239888,-0.0071 0.388054,0.105835 0.444499,0.338665 0.0071,0.04233 0.01058,0.08467 0.01058,0.127 0.0071,0.03528 0.01058,0.07409 0.01058,0.116416 0,0.423332 -0.0035,0.850192 -0.01058,1.280579 0,0.423332 0,0.846664 0,1.269996 0,0.02822 0,0.05644 0,0.08467 0.0071,0.02117 0.01411,0.04939 0.02117,0.08467 0.155221,-0.07761 0.292804,-0.158749 0.412748,-0.243416 0.127,-0.08467 0.239889,-0.186971 0.338666,-0.306915 0.296332,-0.338666 0.53622,-0.673804 0.719664,-1.005414 0.190499,-0.338665 0.306916,-0.733775 0.349249,-1.185329 0.02117,-0.211666 0.07056,-0.349249 0.148166,-0.412749 0.08467,-0.07055 0.239888,-0.112889 0.465665,-0.127 0.119945,-0.01411 0.236361,-0.0247 0.349249,-0.03175 0.119944,-0.0071 0.239888,0.0071 0.359833,0.04233 0.218721,0.05645 0.338665,0.183446 0.359832,0.380998 0.0071,0.05645 0.01058,0.116419 0.01058,0.179917 0.0071,0.05645 0.0071,0.112891 0,0.169332 -0.119944,0.705553 -0.33161,1.333496 -0.634998,1.883828 -0.296333,0.543276 -0.719665,1.05833 -1.269996,1.545161 0,0.01411 -0.0035,0.0247 -0.01058,0.03175 z"
         id="path16159"
         inkscape:original-d="m 72.118116,75.556922 q 0,0.03175 0.01058,0.04233 0.666748,0.476248 1.047747,1.047746 0.391582,0.571498 0.634998,1.301746 0.05292,0.169333 0.105833,0.349249 0.05292,0.169333 0.09525,0.349249 0.07408,0.359832 -0.116416,0.582081 -0.190499,0.211666 -0.571498,0.22225 -0.148166,0.01058 -0.285749,0 -0.137583,-0.01058 -0.285749,-0.03175 -0.211666,-0.03175 -0.296333,-0.105833 -0.07408,-0.07408 -0.116416,-0.296333 -0.04233,-0.179916 -0.08467,-0.359832 -0.04233,-0.179916 -0.09525,-0.359832 -0.08467,-0.275166 -0.211666,-0.476249 -0.127,-0.211666 -0.306916,-0.444498 -0.370415,-0.476249 -0.93133,-0.698498 -0.04233,-0.02117 -0.07408,-0.02117 -0.02117,-0.01058 -0.03175,0 -0.01058,0 -0.03175,0 0,0.127 -0.01058,0.254 0,0.116416 0.01058,0.232832 0.02117,0.423332 0.04233,0.846664 0.03175,0.412749 0.05292,0.836081 0.01058,0.211666 -0.07408,0.455082 -0.03175,0.116416 -0.127,0.179916 -0.09525,0.07408 -0.222249,0.08467 -0.391582,0.03175 -0.772581,0 -0.402165,-0.03175 -0.455082,-0.444498 -0.02117,-0.211666 -0.05292,-0.433916 -0.03175,-0.232832 -0.03175,-0.455081 -0.03175,-1.31233 -0.0635,-2.614075 -0.03175,-1.301746 -0.05292,-2.614075 -0.01058,-0.275166 -0.03175,-0.529165 -0.01058,-0.264583 -0.01058,-0.529165 -0.01058,-0.28575 0.08467,-0.391583 0.105833,-0.116416 0.391582,-0.148166 0.201082,-0.02117 0.391582,-0.03175 0.201082,-0.01058 0.402165,-0.02117 0.359832,-0.01058 0.444499,0.338665 0.01058,0.0635 0.01058,0.127 0.01058,0.05292 0.01058,0.116416 0,0.634998 -0.01058,1.280579 0,0.634998 0,1.269996 0,0.04233 0,0.08467 0.01058,0.03175 0.02117,0.08467 0.232832,-0.116416 0.412748,-0.243416 0.1905,-0.126999 0.338666,-0.306915 0.444498,-0.507999 0.719664,-1.005414 0.285749,-0.507998 0.349249,-1.185329 0.03175,-0.317499 0.148166,-0.412749 0.127,-0.105833 0.465665,-0.127 0.179917,-0.02117 0.349249,-0.03175 0.179916,-0.01058 0.359833,0.04233 0.328082,0.08467 0.359832,0.380998 0.01058,0.08467 0.01058,0.179917 0.01058,0.08467 0,0.169332 -0.179916,1.05833 -0.634998,1.883828 -0.444499,0.814914 -1.269996,1.545161 0,0.02117 -0.01058,0.03175 z" />
      <path
         d="m 76.309087,76.266003 c 0.03528,0.246944 0.07056,0.486832 0.105833,0.719665 0.03528,0.232833 0.07056,0.472721 0.105833,0.719664 0.04939,0 0.09172,0.0035 0.126999,0.01058 0.04233,0 0.08114,0.0035 0.116417,0.01058 0.373943,0.01411 0.740831,-0.01058 1.100663,-0.07408 0.359832,-0.0635 0.719664,-0.137583 1.079496,-0.22225 0.204611,-0.05645 0.356305,-0.05997 0.455082,-0.01058 0.09878,0.04939 0.186972,0.172859 0.264583,0.370416 0.03528,0.08467 0.05997,0.17286 0.07408,0.264582 0.02117,0.08467 0.03881,0.176389 0.05292,0.275166 0.02117,0.176388 0,0.313971 -0.0635,0.412749 -0.05645,0.09878 -0.169335,0.176388 -0.338666,0.232832 -0.204611,0.0635 -0.409221,0.123472 -0.613831,0.179916 -0.204611,0.04939 -0.409221,0.09172 -0.613832,0.127 -0.239888,0.03528 -0.479776,0.05997 -0.719664,0.07408 -0.232833,0.01411 -0.469193,0.0247 -0.709081,0.03175 -0.134055,0.0071 -0.268111,-3e-6 -0.402166,-0.02117 -0.126999,-0.02117 -0.253999,-0.04939 -0.380998,-0.08467 -0.515054,-0.141111 -0.836081,-0.465665 -0.963081,-0.973664 -0.05645,-0.20461 -0.105835,-0.412748 -0.148166,-0.624414 -0.04233,-0.218722 -0.07761,-0.433916 -0.105833,-0.645582 -0.155221,-1.26294 -0.190499,-2.543519 -0.105833,-3.841738 0.01411,-0.20461 0.03881,-0.405693 0.07408,-0.603248 0.04233,-0.197555 0.09172,-0.395109 0.148166,-0.592664 0.148167,-0.564443 0.518582,-0.839609 1.111247,-0.825498 0.423332,0.01411 0.843136,0.03175 1.259413,0.05292 0.416276,0.01411 0.83608,0.03528 1.259412,0.0635 0.119944,0.0071 0.23636,0.02469 0.349249,0.05292 0.112889,0.02822 0.229305,0.05997 0.349249,0.09525 0.204611,0.0635 0.292805,0.204611 0.264583,0.423332 -0.01411,0.112889 -0.03175,0.225777 -0.05292,0.338665 -0.02117,0.105833 -0.04939,0.208139 -0.08467,0.306916 -0.0635,0.197555 -0.144639,0.328082 -0.243416,0.391582 -0.09878,0.05645 -0.250471,0.07761 -0.455082,0.0635 -0.359832,-0.01411 -0.712609,-0.02822 -1.05833,-0.04233 -0.345721,-0.02117 -0.698498,-0.03881 -1.05833,-0.05292 -0.02117,0 -0.04233,0.0035 -0.0635,0.01058 -0.02117,0 -0.04586,0 -0.07408,0 -0.0635,0.289277 -0.09525,0.575026 -0.09525,0.857247 0.0071,0.282221 0.01058,0.571498 0.01058,0.86783 0.197555,0 0.388054,0 0.571498,0 0.190499,-0.0071 0.380999,-0.0071 0.571498,0 0.162277,0 0.321027,0.0035 0.476248,0.01058 0.155222,0 0.313972,0.0035 0.476249,0.01058 0.09878,0 0.17286,0.02822 0.222249,0.08467 0.04939,0.05645 0.08819,0.123474 0.116417,0.201083 0.08467,0.338665 0.07761,0.659692 -0.02117,0.96308 -0.07055,0.204611 -0.215194,0.317499 -0.433915,0.338666 -0.176389,0.01411 -0.349249,0.0247 -0.518582,0.03175 -0.169333,0.0071 -0.342193,0.01411 -0.518582,0.02117 -0.141111,0.0071 -0.285749,0.01058 -0.433915,0.01058 -0.141111,-0.0071 -0.296332,-0.01058 -0.465665,-0.01058 z"
         id="path16161"
         inkscape:original-d="m 76.309087,76.266003 q 0.05292,0.370416 0.105833,0.719665 0.05292,0.349249 0.105833,0.719664 0.07408,0 0.126999,0.01058 0.0635,0 0.116417,0.01058 0.560915,0.02117 1.100663,-0.07408 0.539748,-0.09525 1.079496,-0.22225 0.306916,-0.08467 0.455082,-0.01058 0.148167,0.07408 0.264583,0.370416 0.05292,0.126999 0.07408,0.264582 0.03175,0.127 0.05292,0.275166 0.03175,0.264582 -0.0635,0.412749 -0.08467,0.148166 -0.338666,0.232832 -0.306916,0.09525 -0.613831,0.179916 -0.306916,0.07408 -0.613832,0.127 -0.359832,0.05292 -0.719664,0.07408 -0.349249,0.02117 -0.709081,0.03175 -0.201083,0.01058 -0.402166,-0.02117 -0.190499,-0.03175 -0.380998,-0.08467 -0.772581,-0.211666 -0.963081,-0.973664 -0.08467,-0.306915 -0.148166,-0.624414 -0.0635,-0.328083 -0.105833,-0.645582 -0.232832,-1.89441 -0.105833,-3.841738 0.02117,-0.306915 0.07408,-0.603248 0.0635,-0.296332 0.148166,-0.592664 0.22225,-0.846664 1.111247,-0.825498 0.634998,0.02117 1.259413,0.05292 0.624414,0.02117 1.259412,0.0635 0.179916,0.01058 0.349249,0.05292 0.169333,0.04233 0.349249,0.09525 0.306916,0.09525 0.264583,0.423332 -0.02117,0.169333 -0.05292,0.338665 -0.03175,0.15875 -0.08467,0.306916 -0.09525,0.296332 -0.243416,0.391582 -0.148166,0.08467 -0.455082,0.0635 -0.539748,-0.02117 -1.05833,-0.04233 -0.518582,-0.03175 -1.05833,-0.05292 -0.03175,0 -0.0635,0.01058 -0.03175,0 -0.07408,0 -0.09525,0.433915 -0.09525,0.857247 0.01058,0.423332 0.01058,0.86783 0.296332,0 0.571498,0 0.285749,-0.01058 0.571498,0 0.243416,0 0.476248,0.01058 0.232833,0 0.476249,0.01058 0.148166,0 0.222249,0.08467 0.07408,0.08467 0.116417,0.201083 0.126999,0.507998 -0.02117,0.96308 -0.105833,0.306916 -0.433915,0.338666 -0.264583,0.02117 -0.518582,0.03175 -0.253999,0.01058 -0.518582,0.02117 -0.211666,0.01058 -0.433915,0.01058 -0.211666,-0.01058 -0.465665,-0.01058 z" />
      <path
         d="m 84.447627,75.715672 c 0.02822,0.03528 0.05291,0.0635 0.07408,0.08467 0.02117,0.02117 0.04233,0.04233 0.0635,0.0635 0.261055,0.26811 0.45861,0.564442 0.592665,0.888997 0.134055,0.317499 0.197555,0.666748 0.190499,1.047747 0,0.345721 -0.01058,0.691442 -0.03175,1.037163 -0.01411,0.162277 -0.05645,0.285749 -0.126999,0.370416 -0.0635,0.07761 -0.176389,0.123472 -0.338666,0.137583 -0.26811,0.02822 -0.546804,0.02116 -0.836081,-0.02117 -0.141111,-0.02117 -0.239888,-0.07055 -0.296332,-0.148166 -0.05645,-0.07761 -0.08114,-0.1905 -0.07408,-0.338666 0.0071,-0.134055 0.01411,-0.264582 0.02117,-0.391582 0.0071,-0.134055 0.01411,-0.26811 0.02117,-0.402165 0,-0.07761 0,-0.148167 0,-0.211666 0,-0.07055 -0.0035,-0.141111 -0.01058,-0.211666 -0.0635,-0.437443 -0.306916,-0.709081 -0.730248,-0.814914 -0.126999,-0.02822 -0.257527,-0.0388 -0.391582,-0.03175 -0.126999,0.0071 -0.261054,0.01764 -0.402165,0.03175 -0.0071,0.26811 -0.01411,0.560915 -0.02117,0.878414 -0.0071,0.317499 -0.01411,0.606775 -0.02117,0.86783 -0.0071,0.07761 -0.01411,0.151694 -0.02117,0.222249 -0.0071,0.07055 -0.01058,0.144639 -0.01058,0.22225 -0.0071,0.119944 -0.05291,0.225777 -0.137583,0.317499 -0.08467,0.08467 -0.194028,0.130527 -0.328083,0.137583 -0.126999,0.01411 -0.257527,0.01764 -0.391582,0.01058 -0.126999,0 -0.253999,-0.0071 -0.380998,-0.02117 -0.162277,-0.02117 -0.275166,-0.07055 -0.338666,-0.148166 -0.05645,-0.07761 -0.08467,-0.197555 -0.08467,-0.359832 0.01411,-0.373943 0.0247,-0.776109 0.03175,-1.206496 0.01411,-0.430388 0.02822,-0.832553 0.04233,-1.206496 0.02117,-0.536221 0.02469,-1.068914 0.01058,-1.598079 -0.01411,-0.529165 -0.04234,-1.05833 -0.08467,-1.587495 -0.01411,-0.197555 -0.03175,-0.395109 -0.05292,-0.592664 -0.01411,-0.197555 -0.02822,-0.39511 -0.04233,-0.592665 -0.01411,-0.134055 -3e-6,-0.232833 0.04233,-0.296333 0.04233,-0.07055 0.123472,-0.134055 0.243416,-0.190499 0.141111,-0.07761 0.289277,-0.126999 0.444499,-0.148166 0.155221,-0.02822 0.313971,-0.04939 0.476248,-0.0635 0.225777,-0.02117 0.455082,-0.03881 0.687915,-0.05292 0.232832,-0.01411 0.462137,-0.01764 0.687914,-0.01058 0.183444,0.0071 0.36336,0.02116 0.539748,0.04233 0.176389,0.02117 0.352777,0.05644 0.529165,0.105833 0.472721,0.119945 0.850192,0.352777 1.132413,0.698498 0.289277,0.338666 0.455082,0.751415 0.497415,1.238246 0.01411,0.197555 3e-6,0.388055 -0.04233,0.571498 -0.04233,0.176389 -0.102305,0.352777 -0.179916,0.529165 -0.176388,0.380999 -0.423332,0.702026 -0.740831,0.963081 -0.05645,0.05645 -0.127002,0.116419 -0.211666,0.179916 z m -2.243659,-0.751414 c 0.246943,-0.0635 0.493887,-0.155222 0.740831,-0.275166 0.253999,-0.127 0.458609,-0.261055 0.613831,-0.402166 0.0635,-0.05645 0.123472,-0.123474 0.179916,-0.201082 0.0635,-0.07761 0.112889,-0.155222 0.148166,-0.232833 0.07761,-0.162277 0.08467,-0.310444 0.02117,-0.444499 -0.05645,-0.134055 -0.172863,-0.225776 -0.349249,-0.275165 -0.246943,-0.07055 -0.493887,-0.09878 -0.740831,-0.08467 -0.239888,0.0071 -0.483304,0.01411 -0.730248,0.02117 0.02117,0.324555 0.03881,0.642054 0.05292,0.952497 0.02117,0.310443 0.04233,0.624415 0.0635,0.941914 z"
         id="path16163"
         inkscape:original-d="m 84.447627,75.715672 q 0.04233,0.05292 0.07408,0.08467 0.03175,0.03175 0.0635,0.0635 0.391582,0.402165 0.592665,0.888997 0.201083,0.476249 0.190499,1.047747 0,0.518582 -0.03175,1.037163 -0.02117,0.243416 -0.126999,0.370416 -0.09525,0.116416 -0.338666,0.137583 -0.402165,0.04233 -0.836081,-0.02117 -0.211666,-0.03175 -0.296332,-0.148166 -0.08467,-0.116417 -0.07408,-0.338666 0.01058,-0.201082 0.02117,-0.391582 0.01058,-0.201083 0.02117,-0.402165 0,-0.116417 0,-0.211666 0,-0.105833 -0.01058,-0.211666 -0.09525,-0.656165 -0.730248,-0.814914 -0.190499,-0.04233 -0.391582,-0.03175 -0.190499,0.01058 -0.402165,0.03175 -0.01058,0.402165 -0.02117,0.878414 -0.01058,0.476248 -0.02117,0.86783 -0.01058,0.116416 -0.02117,0.222249 -0.01058,0.105833 -0.01058,0.22225 -0.01058,0.179916 -0.137583,0.317499 -0.127,0.126999 -0.328083,0.137583 -0.190499,0.02117 -0.391582,0.01058 -0.190499,0 -0.380998,-0.02117 -0.243416,-0.03175 -0.338666,-0.148166 -0.08467,-0.116416 -0.08467,-0.359832 0.02117,-0.560915 0.03175,-1.206496 0.02117,-0.645582 0.04233,-1.206496 0.03175,-0.804331 0.01058,-1.598079 -0.02117,-0.793747 -0.08467,-1.587495 -0.02117,-0.296332 -0.05292,-0.592664 -0.02117,-0.296333 -0.04233,-0.592665 -0.02117,-0.201083 0.04233,-0.296333 0.0635,-0.105833 0.243416,-0.190499 0.211666,-0.116416 0.444499,-0.148166 0.232832,-0.04233 0.476248,-0.0635 0.338666,-0.03175 0.687915,-0.05292 0.349248,-0.02117 0.687914,-0.01058 0.275166,0.01058 0.539748,0.04233 0.264583,0.03175 0.529165,0.105833 0.709081,0.179917 1.132413,0.698498 0.433916,0.507999 0.497415,1.238246 0.02117,0.296333 -0.04233,0.571498 -0.0635,0.264583 -0.179916,0.529165 -0.264582,0.571499 -0.740831,0.963081 -0.08467,0.08467 -0.211666,0.179916 z m -2.243659,-0.751414 q 0.370415,-0.09525 0.740831,-0.275166 0.380998,-0.1905 0.613831,-0.402166 0.09525,-0.08467 0.179916,-0.201082 0.09525,-0.116417 0.148166,-0.232833 0.116417,-0.243416 0.02117,-0.444499 -0.08467,-0.201082 -0.349249,-0.275165 -0.370415,-0.105833 -0.740831,-0.08467 -0.359832,0.01058 -0.730248,0.02117 0.03175,0.486832 0.05292,0.952497 0.03175,0.465665 0.0635,0.941914 z" />
      <path
         d="m 89.019601,71.482352 c 0.423332,0.05645 0.765525,0.218724 1.02658,0.486832 0.26811,0.261055 0.47272,0.582081 0.613831,0.96308 0.07761,0.190499 0.08114,0.36336 0.01058,0.518582 -0.07055,0.155221 -0.201083,0.271638 -0.391582,0.349249 -0.09878,0.04233 -0.201083,0.07408 -0.306916,0.09525 -0.105833,0.01411 -0.211666,0.02822 -0.317499,0.04233 -0.162277,0.02117 -0.282221,-0.05292 -0.359832,-0.222249 l -0.03175,-0.126999 c -0.05645,-0.119945 -0.137585,-0.218722 -0.243416,-0.296333 -0.09878,-0.08467 -0.208138,-0.14111 -0.328082,-0.169333 -0.119945,-0.03528 -0.243417,-0.03881 -0.370416,-0.01058 -0.126999,0.02117 -0.243416,0.07408 -0.349249,0.15875 -0.07055,0.05645 -0.127,0.127002 -0.169333,0.211666 -0.04233,0.07761 -0.07056,0.165805 -0.08467,0.264582 -0.0071,0.09172 3e-6,0.186972 0.02117,0.285749 0.02822,0.09172 0.07408,0.176388 0.137582,0.253999 0.0635,0.07761 0.137583,0.148167 0.22225,0.211666 0.09172,0.0635 0.179916,0.123472 0.264582,0.179916 0.310443,0.204611 0.610304,0.388055 0.899581,0.550332 0.296332,0.162277 0.578553,0.377471 0.846664,0.645581 0.141111,0.148167 0.261055,0.306916 0.359832,0.476249 0.09878,0.162277 0.176388,0.345721 0.232832,0.550331 0.07055,0.303388 0.08466,0.582082 0.04233,0.836081 -0.03528,0.246944 -0.112891,0.469193 -0.232833,0.666748 -0.112889,0.197555 -0.261055,0.370415 -0.444498,0.518582 -0.183444,0.141111 -0.384527,0.253999 -0.603249,0.338665 -0.225777,0.09172 -0.469192,0.151694 -0.730247,0.179916 -0.253999,0.02822 -0.507999,0.02469 -0.761998,-0.01058 -0.253999,-0.03528 -0.500943,-0.102308 -0.740831,-0.201083 -0.239888,-0.09878 -0.455082,-0.232832 -0.645581,-0.402165 -0.275166,-0.239888 -0.324555,-0.511526 -0.148166,-0.814914 0.07055,-0.112889 0.141111,-0.218722 0.211666,-0.317499 0.07761,-0.09878 0.162277,-0.194027 0.253999,-0.285749 0.105833,-0.105833 0.208138,-0.155222 0.306916,-0.148166 0.105833,0 0.218721,0.04586 0.338665,0.137582 0.05645,0.05645 0.112891,0.109363 0.169333,0.15875 0.05645,0.04939 0.119946,0.102303 0.190499,0.158749 0.169333,0.141111 0.345722,0.208138 0.529165,0.201083 0.183444,-0.01411 0.33161,-0.06703 0.444499,-0.158749 0.112889,-0.09878 0.165805,-0.229305 0.158749,-0.391582 0,-0.162277 -0.09878,-0.328083 -0.296332,-0.497416 -0.126999,-0.09878 -0.261054,-0.190499 -0.402165,-0.275165 -0.134055,-0.09172 -0.271638,-0.176389 -0.412749,-0.254 -0.176388,-0.09878 -0.352776,-0.197555 -0.529165,-0.296332 -0.169333,-0.09878 -0.328082,-0.215194 -0.476248,-0.349249 -0.183444,-0.162277 -0.342194,-0.342193 -0.476249,-0.539748 -0.134055,-0.197555 -0.229305,-0.412748 -0.285749,-0.645581 -0.134055,-0.52211 -0.141112,-0.984248 -0.02117,-1.386413 0.127,-0.409221 0.331611,-0.744358 0.613832,-1.005413 0.282221,-0.26811 0.624415,-0.455082 1.02658,-0.560915 0.402165,-0.112889 0.814914,-0.137582 1.238246,-0.07408 z"
         id="path16165"
         inkscape:original-d="m 89.019601,71.482352 q 0.634998,0.08467 1.02658,0.486832 0.402165,0.391582 0.613831,0.96308 0.116417,0.285749 0.01058,0.518582 -0.105833,0.232832 -0.391582,0.349249 -0.148167,0.0635 -0.306916,0.09525 -0.15875,0.02117 -0.317499,0.04233 -0.243416,0.03175 -0.359832,-0.222249 l -0.03175,-0.126999 q -0.08467,-0.179917 -0.243416,-0.296333 -0.148166,-0.126999 -0.328082,-0.169333 -0.179917,-0.05292 -0.370416,-0.01058 -0.190499,0.03175 -0.349249,0.15875 -0.105833,0.08467 -0.169333,0.211666 -0.0635,0.116416 -0.08467,0.264582 -0.01058,0.137583 0.02117,0.285749 0.04233,0.137583 0.137582,0.253999 0.09525,0.116417 0.22225,0.211666 0.137583,0.09525 0.264582,0.179916 0.465665,0.306916 0.899581,0.550332 0.444498,0.243416 0.846664,0.645581 0.211666,0.22225 0.359832,0.476249 0.148166,0.243416 0.232832,0.550331 0.105833,0.455082 0.04233,0.836081 -0.05292,0.370416 -0.232833,0.666748 -0.169333,0.296332 -0.444498,0.518582 -0.275166,0.211666 -0.603249,0.338665 -0.338665,0.137583 -0.730247,0.179916 -0.380999,0.04233 -0.761998,-0.01058 -0.380999,-0.05292 -0.740831,-0.201083 -0.359832,-0.148166 -0.645581,-0.402165 -0.412749,-0.359832 -0.148166,-0.814914 0.105833,-0.169333 0.211666,-0.317499 0.116416,-0.148166 0.253999,-0.285749 0.158749,-0.15875 0.306916,-0.148166 0.158749,0 0.338665,0.137582 0.08467,0.08467 0.169333,0.15875 0.08467,0.07408 0.190499,0.158749 0.254,0.211666 0.529165,0.201083 0.275166,-0.02117 0.444499,-0.158749 0.169333,-0.148167 0.158749,-0.391582 0,-0.243416 -0.296332,-0.497416 -0.190499,-0.148166 -0.402165,-0.275165 -0.201083,-0.137583 -0.412749,-0.254 -0.264582,-0.148166 -0.529165,-0.296332 -0.253999,-0.148166 -0.476248,-0.349249 -0.275166,-0.243416 -0.476249,-0.539748 -0.201083,-0.296332 -0.285749,-0.645581 -0.201083,-0.783165 -0.02117,-1.386413 0.1905,-0.613831 0.613832,-1.005413 0.423332,-0.402165 1.02658,-0.560915 0.603248,-0.169333 1.238246,-0.07408 z" />
    </g>
    <path
       id="rect1680-5-5-2"
       style="fill:#000000;fill-opacity:1;fill-rule:evenodd;stroke-width:0.188158;stroke-miterlimit:4;stroke-dasharray:none"
       d="m 0,17.348691 v 1.721617 h 11.916068 c 1.216402,0 1.666049,0.0024 1.666049,-0.641613 v -0.438391 c 0,-0.635398 -0.449647,-0.641613 -1.666049,-0.641613 z"
       sodipodi:nodetypes="ccssssc" />
    <path
       id="rect1680-5-5-2-9"
       style="fill:#000000;fill-opacity:1;fill-rule:evenodd;stroke-width:0.188158;stroke-miterlimit:4;stroke-dasharray:none"
       d="M 60.603972,19.070308 V 17.348691 H 48.687904 c -1.216402,0 -1.666049,-0.0024 -1.666049,0.641613 v 0.438391 c 0,0.635398 0.449647,0.641613 1.666049,0.641613 z"
       sodipodi:nodetypes="ccssssc" />
    <path
       id="rect1680-5-5-2-7"
       style="fill:#000000;fill-opacity:1;fill-rule:evenodd;stroke-width:0.188158;stroke-miterlimit:4;stroke-dasharray:none"
       d="m 29.441176,36.419044 h 1.721617 V 24.502976 c 0,-1.216402 0.0024,-1.666049 -0.641613,-1.666049 h -0.438391 c -0.635398,0 -0.641613,0.449647 -0.641613,1.666049 z"
       sodipodi:nodetypes="ccssssc" />
    <path
       id="rect1680-5-5-2-7-6"
       style="fill:#000000;fill-opacity:1;fill-rule:evenodd;stroke-width:0.188158;stroke-miterlimit:4;stroke-dasharray:none"
       d="m 31.162798,0 h -1.721616 v 11.916068 c 0,1.216402 -0.0024,1.666049 0.641613,1.666049 h 0.438391 c 0.635398,0 0.641612,-0.449647 0.641612,-1.666049 z"
       sodipodi:nodetypes="ccssssc" />
  </g>
</svg>
