<svg xmlns="http://www.w3.org/2000/svg" xmlns:xlink="http://www.w3.org/1999/xlink" viewBox="0 0 512 512"><defs><style>.cls-1{fill:url(#linear-gradient);}.cls-2{fill:url(#linear-gradient-2);}.cls-3{fill:url(#linear-gradient-3);}.cls-4{fill:url(#linear-gradient-4);}.cls-5{fill:url(#linear-gradient-5);}.cls-6{fill:url(#linear-gradient-6);}.cls-7{fill:url(#linear-gradient-7);}.cls-8{fill:url(#linear-gradient-8);}.cls-9{fill:url(#linear-gradient-9);}.cls-10{fill:url(#linear-gradient-10);}.cls-11{fill:url(#linear-gradient-11);}.cls-12{fill:url(#linear-gradient-12);}.cls-13{fill:#4f4f4f;}</style><linearGradient id="linear-gradient" x1="158.99" y1="122.87" x2="158.99" y2="420.12" gradientUnits="userSpaceOnUse"><stop offset="0" stop-color="#003c5c"/><stop offset="0.03" stop-color="#0064b2"/><stop offset="0.04" stop-color="#0366b3"/><stop offset="0.25" stop-color="#4e94ca"/><stop offset="0.45" stop-color="#8dbadd"/><stop offset="0.63" stop-color="#bed8eb"/><stop offset="0.79" stop-color="#e2edf6"/><stop offset="0.92" stop-color="#f7fafd"/><stop offset="1" stop-color="#fff"/></linearGradient><linearGradient id="linear-gradient-2" x1="223.5" y1="122.87" x2="223.5" y2="420.12" xlink:href="#linear-gradient"/><linearGradient id="linear-gradient-3" x1="288.13" y1="122.87" x2="288.13" y2="420.12" xlink:href="#linear-gradient"/><linearGradient id="linear-gradient-4" x1="353.4" y1="122.87" x2="353.4" y2="420.12" xlink:href="#linear-gradient"/><linearGradient id="linear-gradient-5" x1="68.46" y1="122.44" x2="68.46" y2="293.43" gradientUnits="userSpaceOnUse"><stop offset="0" stop-color="#77787b"/><stop offset="0.4" stop-color="#979799"/><stop offset="0.76" stop-color="#acacad"/><stop offset="1" stop-color="#b4b4b4"/></linearGradient><linearGradient id="linear-gradient-6" x1="83.68" y1="14.11" x2="83.68" y2="146.36" gradientUnits="userSpaceOnUse"><stop offset="0" stop-color="#6b6c6f"/><stop offset="0.42" stop-color="#8e8e8f"/><stop offset="0.77" stop-color="#a3a3a4"/><stop offset="1" stop-color="#ababab"/></linearGradient><linearGradient id="linear-gradient-7" x1="506.94" y1="16.17" x2="506.94" y2="183.31" gradientTransform="matrix(-1, 0, 0, 1, 935.24, 0)" gradientUnits="userSpaceOnUse"><stop offset="0" stop-color="#77787b"/><stop offset="0.23" stop-color="#949496"/><stop offset="0.56" stop-color="#b7b7b8"/><stop offset="0.83" stop-color="#cccccd"/><stop offset="1" stop-color="#d4d4d4"/></linearGradient><linearGradient id="linear-gradient-8" x1="65.87" y1="216.8" x2="65.87" y2="378.49" gradientUnits="userSpaceOnUse"><stop offset="0" stop-color="#77787b"/><stop offset="0.15" stop-color="#88888b"/><stop offset="0.51" stop-color="#ababac"/><stop offset="0.81" stop-color="#c0c0c1"/><stop offset="1" stop-color="#c8c8c8"/></linearGradient><linearGradient id="linear-gradient-9" x1="549.77" y1="232.15" x2="549.77" y2="232.15" gradientUnits="userSpaceOnUse"><stop offset="0" stop-color="#77787b"/><stop offset="0.12" stop-color="#8e8f91"/><stop offset="0.41" stop-color="#bebfc0"/><stop offset="0.66" stop-color="#e2e2e2"/><stop offset="0.87" stop-color="#f7f7f7"/><stop offset="1" stop-color="#fff"/></linearGradient><linearGradient id="linear-gradient-10" x1="443.71" y1="135.87" x2="443.71" y2="282.53" gradientUnits="userSpaceOnUse"><stop offset="0" stop-color="#77787b"/><stop offset="0.1" stop-color="#828385"/><stop offset="0.48" stop-color="#a5a5a6"/><stop offset="0.8" stop-color="#bababb"/><stop offset="1" stop-color="#c2c2c2"/></linearGradient><linearGradient id="linear-gradient-11" x1="444.63" y1="283.85" x2="444.63" y2="387.69" gradientUnits="userSpaceOnUse"><stop offset="0" stop-color="#77787b"/><stop offset="0.04" stop-color="#7b7c7e"/><stop offset="0.45" stop-color="#9e9e9f"/><stop offset="0.78" stop-color="#b3b3b4"/><stop offset="1" stop-color="#bbb"/></linearGradient><linearGradient id="linear-gradient-12" x1="256" y1="377.29" x2="256" y2="495.76" gradientUnits="userSpaceOnUse"><stop offset="0" stop-color="#4368b1"/><stop offset="0.05" stop-color="#4f72b6"/><stop offset="0.3" stop-color="#8da4d0"/><stop offset="0.53" stop-color="#becbe4"/><stop offset="0.73" stop-color="#e2e7f3"/><stop offset="0.89" stop-color="#f7f9fc"/><stop offset="1" stop-color="#fff"/></linearGradient></defs><g id="Layer_2" data-name="Layer 2"><path class="cls-1" d="M134.73,193V144.25S137.27,124,159,124s24.25,21.51,24.25,21.51V420.38H134.73Z"/><path class="cls-2" d="M199.08,193l-.31-46.34S201.61,124,223.33,124s24.9,21.38,24.9,21.38l-.65,275h-48.5Z"/><path class="cls-3" d="M263.93,193,263,147.34S266.47,124,288.18,124s25,22.13,25,22.13l-.78,274.29h-48.5Z"/><path class="cls-4" d="M328.78,193l-1-45.43S331.32,124,353,124s26,24,26,24l-1.7,272.37H328.78Z"/><path class="cls-5" d="M16.09,274.28l.08-120.68a33.24,33.24,0,0,1,4-16.27c4.11-7.17,12.77-14.27,25.85-14.27,27,0,30.25,28.44,30.25,28.44s1.57,6,3.93,6a8.65,8.65,0,0,0,8.71-.76c4.68-3.06,21.33-2.7,32,5.93l-1.09,45s-19.59-1.47-28.78,3.51c0,0-22.35,12-24,33.45L65.9,286.12s-12-7-32.17-1.25c0,0-13.52,4.75-17.64,8.72Z"/><path class="cls-6" d="M14.36,105.93v-64s4-27.82,30.46-27.82S75.16,41.93,75.16,41.93,74,65.6,95.67,69.34l23.93.53s19.91.2,30.07,21.28c0,0,4.22,12,3.16,18.4,0,0-21.28,2.51-29.38,23.36,0,0-3.94,8.83-3.66,13.45,0,0-11.94-7.42-29.63-3.18,0,0-6.26-31.85-45.34-34.47,0,0-18.11-.16-30.46,11.27Z"/><path class="cls-7" d="M495.75,118.7V43.12s-3.9-26.95-29.64-26.95-29.52,26.95-29.52,26.95S437.71,66,416.64,69.65l-23.29.52s-19.38.19-29.26,20.61c0,0-4.11,11.59-3.07,17.82,0,0,5.14-1,22.82,13.5,0,0,8.94-3.87,17.67-3.53,0,0,10.4-1.21,25.43,7.72,0,0,19.74,8.26,20.38,50.21,0,0,25.89-12.41,48.43,6.81Z"/><path class="cls-8" d="M13.09,404.21V325.62s.46-31.13,30.51-31.13c0,0,13.93,1.07,21.79,9.35s14-3.12,14.14-4.53c.1-1.14.12-35.2.12-48.07A41,41,0,0,1,83.77,233c4.68-9.42,14.49-19.81,34.71-16.58l.17,163.16-52.87-.18S29.73,378.84,13.09,404.21Z"/><path class="cls-9" d="M549.77,232.15"/><path class="cls-10" d="M393.43,187.21v-43l-1.76-7.84s17.91-6.4,31.58,7.84c0,0,6,4.51,7.72,16.84s.19,30.79.19,30.79.1,6.75,6.57,7.94c0,0,3.55,1.49,9-3.88s19.85-11.73,34.61-3.14c0,0,8.15,5.77,9.9,9.6s4.53,2.56,4.53,24.77v53.15s-13.13-13.65-35.34-10.49A44.12,44.12,0,0,0,430.92,286s-7.08,8.92-8.84,16.85c0,0-15.45-3.84-28.65,3Z"/><path class="cls-11" d="M393.43,324.13s8.84-6.95,17.16-7.08,16.59,3.67,16.59,3.67,7.73.85,9.26-6.76c1.33-6.64,2.45-23.5,20.62-29.24a29.44,29.44,0,0,1,21.26,1,28.46,28.46,0,0,1,14.34,15,39.2,39.2,0,0,1,3.1,15.64l.07,87.86s-19.21-25.65-49.34-24.83H393.43Z"/><path class="cls-12" d="M134.73,396.28s-1.23,7.93-8.08,7.93-8.08-8.08-8.08-8.08l.08-18.7H97s6.46,1.66,6.46,7.91S97,393.26,97,393.26l-32.35.24s-44,.63-48.5,51.13c0,0-1.14,44.87,48.5,51.13h380s46.73.05,51.2-51.13c0,0,.2-45.52-48.5-51.13l-29.65-.07s-8.08-.55-8.08-8.09,6.45-7.91,6.45-7.91l-22.62-.14v18.83s0,8.09-8.08,8.09-8.06-7.57-8.06-7.57v23.74h40.39s8.09,0,8.09,8.08-8.09,8.09-8.09,8.09H94.32s-8.09-.84-8.09-8.09,8.09-8.08,8.09-8.08h40.41Z"/></g><g id="Layer_1" data-name="Layer 1"><path class="cls-13" d="M134.74,396.13V288.34a8.09,8.09,0,1,0-16.17,0V396.13a8.09,8.09,0,0,0,16.17,0Z"/><path class="cls-13" d="M417.68,420.38H328.76V309.89a8.09,8.09,0,0,0-16.17,0V420.38H199.41V363.79a8.09,8.09,0,0,0-16.17,0v56.59H94.32a8.09,8.09,0,1,0,0,16.17H417.68a8.09,8.09,0,1,0,0-16.17Z"/><path class="cls-13" d="M503.92,167.07A8.08,8.08,0,0,0,512,159V45.81a45.81,45.81,0,0,0-91.62,0,8.09,8.09,0,0,1-8.09,8.08H396.13a51.26,51.26,0,0,0-51.2,51.21v3.5A40.51,40.51,0,0,0,320.67,124,40.39,40.39,0,0,0,256,124a40.39,40.39,0,0,0-64.67,0,40.55,40.55,0,0,0-24.26-15.38v-3.5a51.26,51.26,0,0,0-51.2-51.21H99.71a8.09,8.09,0,0,1-8.09-8.08A45.81,45.81,0,0,0,0,45.81V105.1a8.09,8.09,0,0,0,16.17,0V45.81a29.64,29.64,0,0,1,59.28,0A24.28,24.28,0,0,0,99.7,70.06h16.17a35.07,35.07,0,0,1,35,35v3.5a40.51,40.51,0,0,0-32.14,35.65,45.65,45.65,0,0,0-19.05-4.12,46.22,46.22,0,0,0-9.79,1A45.82,45.82,0,0,0,0,153.6v124a8.09,8.09,0,0,0,16.17,0v-124a29.64,29.64,0,0,1,59.25-1.37A8.07,8.07,0,0,0,87,159.16a29.71,29.71,0,0,1,31.6,3.91v42.44a45.86,45.86,0,0,0-53.9,45.1v33.68A45.85,45.85,0,0,0,0,326.06V444.63A67.44,67.44,0,0,0,67.37,512H444.63A67.44,67.44,0,0,0,512,444.63V315.28a45.82,45.82,0,0,0-89.92-12.43,46.22,46.22,0,0,0-9.79-1,45.71,45.71,0,0,0-18.86,4.05v-82.2a8.09,8.09,0,0,0-16.17,0V396.12a8.09,8.09,0,1,0,16.17,0V324.75a29.71,29.71,0,0,1,31.6-3.91,8.08,8.08,0,0,0,11.55-6.93,29.64,29.64,0,0,1,59.25,1.37v85.61a67.26,67.26,0,0,0-51.2-23.63H417.68a8.09,8.09,0,0,0,0,16.17h26.95a51.2,51.2,0,0,1,0,102.4H67.37a51.2,51.2,0,0,1,0-102.4h28a8.09,8.09,0,1,0,0-16.17h-28a67.25,67.25,0,0,0-51.2,23.63V326.06A29.63,29.63,0,0,1,67,305.33a8.09,8.09,0,0,0,13.86-5.66V250.61a29.69,29.69,0,0,1,37.73-28.53V256a8.08,8.08,0,1,0,16.16,0V216.74a3.23,3.23,0,0,0,0-.44V148.21a24.26,24.26,0,0,1,48.51,0V331.45a8.09,8.09,0,1,0,16.17,0V148.21a24.26,24.26,0,0,1,48.51,0V396.13a8.08,8.08,0,1,0,16.16,0V148.21a24.26,24.26,0,0,1,48.51,0V277.56a8.09,8.09,0,0,0,16.17,0V148.21a24.25,24.25,0,1,1,48.5,0v43.12a8.09,8.09,0,0,0,16.17,0V148.21a40,40,0,0,0-1.76-11.8,29.68,29.68,0,0,1,39.49,28v27.5A8.08,8.08,0,0,0,445,197.54a29.64,29.64,0,0,1,50.82,20.73V256A8.09,8.09,0,0,0,512,256V218.27a45.86,45.86,0,0,0-64.68-41.77V164.38c-4.56-32.47-21.38-43.73-45.81-45.81a50,50,0,0,0-17.67,3.53,40.41,40.41,0,0,0-22.75-13.5v-3.51a35.08,35.08,0,0,1,35-35h16.17a24.29,24.29,0,0,0,24.26-24.25,29.64,29.64,0,0,1,59.28,0V159A8.09,8.09,0,0,0,503.92,167.07Z"/><path class="cls-13" d="M377.26,460.8a8.09,8.09,0,0,0,8.09,8.08h53.89a8.08,8.08,0,1,0,0-16.16H385.35A8.08,8.08,0,0,0,377.26,460.8Z"/><path class="cls-13" d="M72.76,452.72a8.08,8.08,0,1,0,0,16.16h53.89a8.08,8.08,0,1,0,0-16.16Z"/><path class="cls-13" d="M169.77,452.72a8.08,8.08,0,1,0,0,16.16H342.23a8.08,8.08,0,1,0,0-16.16Z"/></g></svg>